<svg xmlns="http://www.w3.org/2000/svg" xmlns:xlink="http://www.w3.org/1999/xlink" version="1.1" id="Layer_1" x="0px" y="0px" style="enable-background:new 0 0 792 612;" xml:space="preserve" viewBox="235.17 211.5 268.33 53">
<style type="text/css">
	.st0{fill:#006CB6;}
	.st1{fill:#CBB677;}
</style>
<g>
	<g>
		<path class="st0" d="M330.4,247.6c0,4.5-0.1,6.5-1.3,8.6c-2.2,4.3-8,8.3-18.2,8.3c-8.2,0-13.8-2.2-17-6.5c-1.9-2.8-2.5-4.1-2.5-11    v-35.2h13.4v33.8c0,4.8,1.5,8,6.2,8c4.8,0,6.1-2.7,6.1-7.7v-34.1h13.3V247.6z"/>
		<path class="st0" d="M359.3,263.6v-21.8h-10.6v21.8h-13.3v-51.8h13.3v19h10.6v-19h13.3v51.8H359.3z"/>
		<path class="st0" d="M402.7,263.6l-9.1-18c-1.3-2.7-2.9-6.4-4-9.7c0.3,2,0.7,6.8,0.7,13.2v14.6h-12.6v-51.8h12.8l9.4,17.8    c1.5,2.8,3,6.4,4.3,9.9c-0.4-3-0.4-8.2-0.4-11.6v-16.1h12.6v51.8H402.7z"/>
	</g>
</g>
<g>
	<g>
		<g>
			<path class="st1" d="M269.4,221.9c-0.3,2.4-1.1,4-0.5,7.5c1.1,5.9,4.9,5.6,5,11.9c0,0.1,0.1,0.2,0.2,0.2c0.1,0,0.1,0,0.2-0.1     c1.9-3,3.2-6.8,3.3-11.1c0.1-6.1-2.5-11.3-6.9-14.9c0,0-0.1-0.1,0-0.1c0,0,0.1-0.1,0.1,0c6.7,4.4,9.9,11.7,8.3,19.4     c-1,5-3.6,9.1-7.2,11.4c-1.6,1-2.6,1.4-4.4,1.9c-0.1,0-0.1,0.2,0,0.3c0.3,0.1,0.6,0.3,0.9,0.4c0.1,0.1,0.2,0.1,0.3,0     c2.9-1.9,6.7-3.4,10.8-3.9c1.4-0.2,4.2-0.7,3.9-2.7c-0.2-0.8-0.3-1.5-0.5-2.3c-0.2-0.8,0.6-1.1,0.9-1.4c0.4-0.7,0.1-1.1-0.5-1.5     c-0.2-0.1-0.2-0.3-0.1-0.3c0.6,0,1.2-0.6,1-1.1c-0.3-0.7-1.2-1.7-0.4-2.8c0.4-0.6,0.6-0.7,1.4-0.9c0.8-0.2,1.1-1.1,0.7-1.6     c-1.4-1.8-2.6-3.2-4-5c-0.7-1.3,1.1-3.2-0.5-4.8c-4-4.2-9.1-7.6-16.4-8.4c-0.1,0-0.2,0.1-0.2,0.2c0.3,1.7,1.5,2.8,2.6,3.9     C269,217.4,269.7,219.7,269.4,221.9"/>
			<path class="st1" d="M283.1,254.5c0.1-0.1,0-0.3-0.1-0.3c-1.6-0.6-3.1-0.1-4.6,0.3c-2.1,0.7-4.5,0.2-6.2-1.2     c-1.9-1.5-2.9-3-6.2-4.2c-5.6-2-7.3,1.5-12.7-1.6c-0.1-0.1-0.2,0-0.2,0.1c0,0.1,0,0.1,0,0.2c1.6,3.2,4.3,6.2,7.9,8.4     c5.2,3.2,10.9,3.5,16.3,1.4c0,0,0.1,0,0.1,0c0,0,0,0.1,0,0.1c-7.1,3.6-15,2.8-20.8-2.4c-3.8-3.4-6.1-7.7-6.2-12     c-0.1-2,0.1-3,0.6-4.8c0-0.1-0.1-0.2-0.2-0.1c-0.3,0.2-0.5,0.4-0.8,0.5c-0.1,0.1-0.1,0.2-0.1,0.3c0,4.6-0.8,10-2.9,14.8     c-0.3,0.7,0,1.5,0.4,1.9c0.6,0.6,1.1,0.5,1.8,0.8c0.7,0.2,0.9,1.2,1.1,1.6c0.3,0.4,0.7,0.4,1,0.3c0,0,0.1,0,0.1,0     c0,0.2,0.1,0.6,0.5,0.8c0.2,0.1,1.3-0.2,1.6,0.3c0.5,0.8,0,2.1,1,2.5c1.4,0,3.3-0.7,5-0.4c1.8,0.3,2.9,1.7,4.7,2.3     c1.3,0.4,2.4,0.5,3.6,0.3C273.1,263.3,278.8,260.3,283.1,254.5"/>
			<path class="st1" d="M237.2,248.9c0.1,0.1,0.2,0.1,0.3,0.1c1.3-1.1,1.7-2.7,2-4.2c0.5-2.2,2.1-4,4.2-4.8c2.2-0.9,4-1,6.7-3.3     c4.5-3.9,2.4-7.1,7.7-10.3c0.1-0.1,0.1-0.2,0.1-0.3c0-0.1-0.1-0.1-0.2-0.1c-3.5-0.2-7.4,0.7-11.2,2.7c-5.3,2.9-8.4,7.8-9.3,13.5     c0,0.1,0,0.1-0.1,0.1c-0.1,0-0.1-0.1-0.1-0.1c0.5-8,5.1-14.5,12.5-17c4.8-1.6,9.6-1.5,13.4,0.6c1.7,0.9,2.5,1.6,3.8,2.9     c0.1,0.1,0.2,0,0.2-0.1c0-0.3,0-0.7-0.1-1c0-0.1-0.1-0.2-0.2-0.3c-3.1-1.6-6.3-4.2-8.7-7.5c-0.8-1.1-2.5-3-4.3-2     c-0.7,0.4-0.9,0.6-1.4,1.3c-0.5,0.6-1.6,0.4-2,0.1c-0.8,0-1.4,0.6-1.3,1.3c0,0.2-0.2,0.3-0.2,0.2c-0.4-0.5-1.5-0.7-1.9,0     c-0.1,0.5-0.6,1.6-1.4,1.1c-0.9-0.7-2-0.7-2.4,0.1c-0.8,1.6-0.8,1.9-2.5,4.8c-1,1.2-4,2.3-4.5,4     C234.8,236.4,234.5,242.1,237.2,248.9"/>
		</g>
	</g>
</g>
<path class="st0" d="M430.2,213.5h-0.3l-0.1-0.3c-0.2-0.7-0.3-1-1.4-1h-1.6v5.3c0,1.3,0.2,1.5,1.1,1.5v0.3h-3.3v-0.3  c1,0,1.2-0.2,1.2-1.5v-5.3h-1.6c-1.1,0-1.2,0.3-1.4,1l-0.1,0.3h-0.3l0.1-1.7h7.3L430.2,213.5z"/>
<path class="st0" d="M431.5,219.6c-1.3,0-2.4-1-2.4-2.3c0-1.3,1.1-2.3,2.4-2.3c1.3,0,2.4,1,2.4,2.3  C433.9,218.5,432.8,219.6,431.5,219.6z M431.5,215.4c-1,0-1.5,0.8-1.5,1.8c0,1,0.5,1.8,1.5,1.8c1,0,1.5-0.8,1.5-1.8  C432.9,216.2,432.5,215.4,431.5,215.4z"/>
<path class="st0" d="M437.9,216.3c-0.2,0-0.4-0.2-0.4-0.5c0-0.3-0.1-0.4-0.4-0.4c-0.3,0-0.9,0.5-0.9,1.5v0.7c0,1.3,0.1,1.5,0.9,1.5  v0.3h-2.8v-0.3c0.8,0,0.9-0.2,0.9-1.5V217c0-1.3-0.2-1.5-0.9-1.5v-0.3l1.6-0.3c0.1,0.1,0.2,0.6,0.2,0.9c0.2-0.5,0.8-0.9,1.3-0.9  c0.7,0,1,0.5,1,0.8C438.4,216,438.2,216.3,437.9,216.3z"/>
<path class="st0" d="M441.4,219.6c-1.3,0-2.4-1-2.4-2.3c0-1.3,1.1-2.3,2.4-2.3c1.3,0,2.4,1,2.4,2.3  C443.8,218.5,442.7,219.6,441.4,219.6z M441.4,215.4c-1,0-1.5,0.8-1.5,1.8c0,1,0.5,1.8,1.5,1.8c1,0,1.5-0.8,1.5-1.8  C442.8,216.2,442.4,215.4,441.4,215.4z"/>
<path class="st0" d="M447.7,214.9c1.1,0,1.6,0.8,1.6,1.9v0.8c0,1.3,0.1,1.5,1,1.5v0.3h-2.8v-0.3c0.8,0,1-0.2,1-1.5v-0.7  c0-0.8-0.3-1.4-1-1.4c-0.7,0-1.4,0.6-1.4,1.3v0.8c0,1.3,0.1,1.5,0.8,1.5v0.3h-2.6v-0.3c0.8,0,1-0.2,1-1.5V217c0-1.3-0.2-1.5-1-1.5  v-0.3l1.6-0.3c0.1,0.1,0.2,0.6,0.2,0.9C446.4,215.4,446.9,214.9,447.7,214.9z"/>
<path class="st0" d="M450.3,215.6v-0.3c0.7-0.2,1-0.7,1.1-1.5h0.4v1.4h1v0.4h-1v2.6c0,0.6,0.2,0.9,0.5,0.9c0.2,0,0.5-0.2,0.8-0.4  l0.2,0.2c-0.3,0.4-0.9,0.7-1.3,0.7c-0.7,0-1.1-0.4-1.1-1.4v-2.6H450.3z"/>
<path class="st0" d="M456,219.6c-1.3,0-2.4-1-2.4-2.3c0-1.3,1.1-2.3,2.4-2.3c1.3,0,2.4,1,2.4,2.3C458.5,218.5,457.4,219.6,456,219.6  z M456,215.4c-1,0-1.5,0.8-1.5,1.8c0,1,0.5,1.8,1.5,1.8c1,0,1.5-0.8,1.5-1.8C457.5,216.2,457,215.4,456,215.4z"/>
<path class="st0" d="M466.7,216.5v-0.3h3.2v0.3c-1,0-1.1,0.2-1.1,1.5v1c-1.3,0-1.9,0.7-3.1,0.7c-2,0-3.7-1.8-3.7-4  c0-2.2,1.7-4,3.7-4c0.8,0,1.6,0.4,2.2,1.1c0.2-0.1,0.4-0.4,0.4-0.7h0.2v2.8h-0.2c-0.3-1.6-1.3-2.6-2.6-2.6c-1.9,0-2.6,1.9-2.6,3.5  c0,1.6,0.6,3.5,2.8,3.5c1,0,2-0.6,2-1.7C467.8,216.8,467.5,216.5,466.7,216.5z"/>
<path class="st0" d="M472.8,219c0.4,0,1-0.2,1.3-0.6l0.2,0.3c-0.4,0.5-1.2,0.8-1.8,0.8c-1.3,0-2.2-1-2.2-2.3c0-1.3,1.1-2.3,2.2-2.3  c1.1,0,1.9,0.9,1.6,2h-2.9C471.1,218.1,471.6,219,472.8,219z M473.3,216.5c0.1-0.4-0.1-1-0.9-1c-0.5,0-1,0.4-1.1,1H473.3z"/>
<path class="st0" d="M478.3,214.9c1.1,0,1.6,0.8,1.6,1.9v0.8c0,1.3,0.1,1.5,1,1.5v0.3h-2.8v-0.3c0.8,0,1-0.2,1-1.5v-0.7  c0-0.8-0.3-1.4-1-1.4c-0.7,0-1.4,0.6-1.4,1.3v0.8c0,1.3,0.1,1.5,0.8,1.5v0.3h-2.6v-0.3c0.8,0,1-0.2,1-1.5V217c0-1.3-0.2-1.5-1-1.5  v-0.3l1.6-0.3c0.1,0.1,0.2,0.6,0.2,0.9C477,215.4,477.6,214.9,478.3,214.9z"/>
<path class="st0" d="M483.5,219c0.4,0,1-0.2,1.3-0.6l0.2,0.3c-0.4,0.5-1.2,0.8-1.8,0.8c-1.3,0-2.2-1-2.2-2.3c0-1.3,1.1-2.3,2.2-2.3  c1.1,0,1.9,0.9,1.6,2h-2.9C481.8,218.1,482.2,219,483.5,219z M484,216.5c0.1-0.4-0.1-1-0.9-1c-0.5,0-1,0.4-1.1,1H484z"/>
<path class="st0" d="M488.9,216.3c-0.2,0-0.4-0.2-0.4-0.5c0-0.3-0.1-0.4-0.4-0.4c-0.3,0-0.9,0.5-0.9,1.5v0.7c0,1.3,0.1,1.5,1,1.5  v0.3h-2.8v-0.3c0.8,0,1-0.2,1-1.5V217c0-1.3-0.2-1.5-1-1.5v-0.3l1.6-0.3c0.1,0.1,0.2,0.6,0.2,0.9c0.2-0.5,0.8-0.9,1.3-0.9  c0.7,0,1,0.5,1,0.8C489.4,216,489.3,216.3,488.9,216.3z"/>
<path class="st0" d="M493.2,219.5c-0.5,0-0.8-0.3-0.8-0.7c-0.6,0.6-1,0.8-1.5,0.8c-0.6,0-1.1-0.4-1.1-1.1c0-1.1,1.2-1.5,2.6-1.8  c0-0.9-0.1-1.3-0.8-1.3c-0.3,0-0.7,0.2-0.7,0.6c0,0.3-0.2,0.4-0.4,0.4c-0.2,0-0.4-0.2-0.4-0.4c0-0.6,0.8-1,1.5-1  c1.2,0,1.6,0.5,1.6,1.7v1.9c0,0.3,0.1,0.5,0.3,0.5c0.1,0,0.3-0.1,0.3-0.2l0.2,0.2C493.8,219.4,493.5,219.5,493.2,219.5z   M492.4,217.1c-1.1,0.3-1.7,0.7-1.7,1.3c0,0.4,0.3,0.6,0.6,0.6c0.3,0,0.5-0.1,1.1-0.6V217.1z"/>
<path class="st0" d="M494.5,219.4v-0.3c0.8,0,1-0.2,1-1.5v-4c0-1.3-0.1-1.5-1-1.5v-0.3l1.8-0.3v6.1c0,1.3,0.2,1.5,1,1.5v0.3H494.5z"/>
<path class="st0" d="M430.2,224.5h-0.3l-0.1-0.3c-0.2-0.7-0.3-1-1.4-1h-1.6v5.3c0,1.3,0.2,1.5,1.1,1.5v0.3h-3.3v-0.3  c1,0,1.2-0.2,1.2-1.5v-5.3h-1.6c-1.1,0-1.2,0.3-1.4,1l-0.1,0.3h-0.3l0.1-1.7h7.3L430.2,224.5z"/>
<path class="st0" d="M431.5,230.6c-1.3,0-2.4-1-2.4-2.3c0-1.3,1.1-2.3,2.4-2.3c1.3,0,2.4,1,2.4,2.3  C433.9,229.6,432.8,230.6,431.5,230.6z M431.5,226.5c-1,0-1.5,0.8-1.5,1.8c0,1,0.5,1.8,1.5,1.8c1,0,1.5-0.8,1.5-1.8  C432.9,227.3,432.5,226.5,431.5,226.5z"/>
<path class="st0" d="M437.9,227.4c-0.2,0-0.4-0.2-0.4-0.5c0-0.3-0.1-0.4-0.4-0.4c-0.3,0-0.9,0.5-0.9,1.5v0.7c0,1.3,0.1,1.5,0.9,1.5  v0.3h-2.8v-0.3c0.8,0,0.9-0.2,0.9-1.5V228c0-1.3-0.2-1.5-0.9-1.5v-0.3l1.6-0.3c0.1,0.1,0.2,0.6,0.2,0.9c0.2-0.5,0.8-0.9,1.3-0.9  c0.7,0,1,0.5,1,0.8C438.4,227.1,438.2,227.4,437.9,227.4z"/>
<path class="st0" d="M441.4,230.6c-1.3,0-2.4-1-2.4-2.3c0-1.3,1.1-2.3,2.4-2.3c1.3,0,2.4,1,2.4,2.3  C443.8,229.6,442.7,230.6,441.4,230.6z M441.4,226.5c-1,0-1.5,0.8-1.5,1.8c0,1,0.5,1.8,1.5,1.8c1,0,1.5-0.8,1.5-1.8  C442.8,227.3,442.4,226.5,441.4,226.5z"/>
<path class="st0" d="M447.7,226c1.1,0,1.6,0.8,1.6,1.9v0.8c0,1.3,0.1,1.5,1,1.5v0.3h-2.8v-0.3c0.8,0,1-0.2,1-1.5v-0.7  c0-0.8-0.3-1.4-1-1.4c-0.7,0-1.4,0.6-1.4,1.3v0.8c0,1.3,0.1,1.5,0.8,1.5v0.3h-2.6v-0.3c0.8,0,1-0.2,1-1.5V228c0-1.3-0.2-1.5-1-1.5  v-0.3l1.6-0.3c0.1,0.1,0.2,0.6,0.2,0.9C446.4,226.5,446.9,226,447.7,226z"/>
<path class="st0" d="M450.3,226.7v-0.3c0.7-0.2,1-0.7,1.1-1.5h0.4v1.4h1v0.4h-1v2.6c0,0.6,0.2,0.9,0.5,0.9c0.2,0,0.5-0.2,0.8-0.4  l0.2,0.2c-0.3,0.4-0.9,0.7-1.3,0.7c-0.7,0-1.1-0.4-1.1-1.4v-2.6H450.3z"/>
<path class="st0" d="M456,230.6c-1.3,0-2.4-1-2.4-2.3c0-1.3,1.1-2.3,2.4-2.3c1.3,0,2.4,1,2.4,2.3C458.5,229.6,457.4,230.6,456,230.6  z M456,226.5c-1,0-1.5,0.8-1.5,1.8c0,1,0.5,1.8,1.5,1.8c1,0,1.5-0.8,1.5-1.8C457.5,227.3,457,226.5,456,226.5z"/>
<path class="st0" d="M464.5,230.6h-0.2l-1.9-6.4c-0.3-0.9-0.4-1.1-1.4-1.1v-0.3h3.4v0.3c-1,0-1.2,0.3-1,1l1.3,4.4l1.7-5.6h0.2  l1.7,5.6l1.3-4.4c0.2-0.7,0-1-0.8-1v-0.3h2.7v0.3c-1,0-1.2,0.3-1.4,1.1l-1.9,6.4h-0.2l-1.7-5.6L464.5,230.6z"/>
<path class="st0" d="M472.3,230.1c0.4,0,1-0.2,1.3-0.6l0.2,0.3c-0.4,0.5-1.2,0.8-1.8,0.8c-1.3,0-2.2-1-2.2-2.3  c0-1.3,1.1-2.3,2.2-2.3c1.1,0,1.9,0.9,1.6,2h-2.9C470.6,229.2,471.1,230.1,472.3,230.1z M472.8,227.5c0.1-0.4-0.1-1-0.9-1  c-0.5,0-1,0.4-1.1,1H472.8z"/>
<path class="st0" d="M476.1,230.6c-0.8,0-1.3-0.9-1.3,0h-0.2v-1.8h0.2c0,0.6,0.5,1.4,1.3,1.4c0.4,0,0.7-0.3,0.7-0.6  c0-0.3-0.3-0.5-0.7-0.8l-0.7-0.4c-0.6-0.3-0.8-0.9-0.8-1.3c0-0.7,0.6-1.1,1.2-1.1c0.9,0,1.1,0.7,1.1,0h0.3v1.5H477  c0-0.5-0.4-1.1-1-1.1c-0.4,0-0.6,0.2-0.6,0.5c0,0.3,0.2,0.5,0.7,0.8l0.6,0.3c0.5,0.3,0.8,0.8,0.8,1.2  C477.5,230.1,476.9,230.6,476.1,230.6z"/>
<path class="st0" d="M478,226.7v-0.3c0.7-0.2,1-0.7,1.1-1.5h0.4v1.4h1v0.4h-1v2.6c0,0.6,0.2,0.9,0.5,0.9c0.2,0,0.5-0.2,0.8-0.4  l0.2,0.2c-0.3,0.4-0.9,0.7-1.3,0.7c-0.7,0-1.1-0.4-1.1-1.4v-2.6H478z"/>
<path class="st0" d="M483.9,230.1c0.4,0,1-0.2,1.3-0.6l0.2,0.3c-0.4,0.5-1.2,0.8-1.8,0.8c-1.3,0-2.2-1-2.2-2.3  c0-1.3,1.1-2.3,2.2-2.3c1.1,0,1.9,0.9,1.6,2h-2.9C482.2,229.2,482.6,230.1,483.9,230.1z M484.4,227.5c0.1-0.4-0.1-1-0.9-1  c-0.5,0-1,0.4-1.1,1H484.4z"/>
<path class="st0" d="M489.4,227.4c-0.2,0-0.4-0.2-0.4-0.5c0-0.3-0.1-0.4-0.4-0.4c-0.3,0-0.9,0.5-0.9,1.5v0.7c0,1.3,0.1,1.5,0.9,1.5  v0.3h-2.7v-0.3c0.8,0,0.9-0.2,0.9-1.5V228c0-1.3-0.2-1.5-0.9-1.5v-0.3l1.6-0.3c0.1,0.1,0.2,0.6,0.2,0.9c0.2-0.5,0.8-0.9,1.3-0.9  c0.7,0,1,0.5,1,0.8C489.8,227.1,489.7,227.4,489.4,227.4z"/>
<path class="st0" d="M493.8,226c1.1,0,1.6,0.8,1.6,1.9v0.8c0,1.3,0.1,1.5,0.9,1.5v0.3h-2.8v-0.3c0.8,0,0.9-0.2,0.9-1.5v-0.7  c0-0.8-0.3-1.4-1-1.4c-0.7,0-1.4,0.6-1.4,1.3v0.8c0,1.3,0.1,1.5,0.8,1.5v0.3h-2.6v-0.3c0.8,0,1-0.2,1-1.5V228c0-1.3-0.2-1.5-1-1.5  v-0.3l1.6-0.3c0.1,0.1,0.2,0.6,0.2,0.9C492.4,226.5,493,226,493.8,226z"/>
<g>
	<path class="st0" d="M428.7,236c0,1.2-0.9,2.1-2.6,2.1h-1.1v1.6c0,1.3,0.1,1.5,1.1,1.5v0.3H423v-0.3c1,0,1.1-0.2,1.1-1.5v-4.1   c0-1.3-0.1-1.5-1.1-1.5v-0.3h3.2C427.8,233.9,428.7,234.9,428.7,236z M427.6,236c0-0.9-0.5-1.7-1.5-1.7h-1.1v3.3h1.1   C427.2,237.7,427.6,237,427.6,236z"/>
	<path class="st0" d="M432.5,238.4c-0.2,0-0.4-0.2-0.4-0.5c0-0.3-0.1-0.4-0.4-0.4c-0.3,0-0.9,0.5-0.9,1.5v0.7c0,1.3,0.1,1.5,0.9,1.5   v0.3H429v-0.3c0.8,0,0.9-0.2,0.9-1.5v-0.6c0-1.3-0.2-1.5-0.9-1.5v-0.3l1.6-0.3c0.1,0.1,0.2,0.6,0.2,0.9c0.2-0.5,0.8-0.9,1.3-0.9   c0.7,0,1,0.5,1,0.8C433,238.1,432.9,238.4,432.5,238.4z"/>
	<path class="st0" d="M433.3,241.5v-0.3c0.8,0,1-0.2,1-1.5v-0.6c0-1.3-0.2-1.5-1-1.5v-0.3l1.8-0.3v2.7c0,1.3,0.1,1.5,1,1.5v0.3   H433.3z M434.7,235.8c-0.3,0-0.5-0.3-0.5-0.6c0-0.3,0.2-0.6,0.5-0.6c0.3,0,0.5,0.3,0.5,0.6C435.2,235.6,435,235.8,434.7,235.8z"/>
	<path class="st0" d="M440,237.1c1.1,0,1.6,0.8,1.6,1.9v0.8c0,1.3,0.1,1.5,0.9,1.5v0.3h-2.7v-0.3c0.8,0,0.9-0.2,0.9-1.5V239   c0-0.8-0.3-1.4-1-1.4c-0.7,0-1.4,0.6-1.4,1.3v0.8c0,1.3,0.1,1.5,0.8,1.5v0.3h-2.6v-0.3c0.8,0,0.9-0.2,0.9-1.5v-0.6   c0-1.3-0.2-1.5-0.9-1.5v-0.3l1.6-0.3c0.1,0.1,0.2,0.6,0.2,0.9C438.7,237.5,439.2,237.1,440,237.1z"/>
	<path class="st0" d="M443.6,239.5c0,1,0.5,1.7,1.5,1.7c0.4,0,0.9-0.2,1.3-0.6l0.2,0.3c-0.5,0.5-1.1,0.8-1.8,0.8   c-1.3,0-2.1-0.9-2.1-2.2c0-1.5,1.2-2.4,2.1-2.4c1,0,1.4,0.4,1.4,0.9c0,0.2-0.1,0.5-0.5,0.5c-0.3,0-0.5-0.2-0.5-0.5   c0-0.4-0.2-0.5-0.4-0.5C444.1,237.5,443.6,238.3,443.6,239.5z"/>
	<path class="st0" d="M449.4,241.2c0.4,0,1-0.2,1.3-0.6l0.2,0.3c-0.4,0.5-1.2,0.8-1.8,0.8c-1.3,0-2.2-1-2.2-2.3   c0-1.3,1.1-2.3,2.2-2.3c1.1,0,1.9,0.9,1.6,2h-2.9C447.7,240.2,448.1,241.2,449.4,241.2z M449.9,238.6c0.1-0.4-0.1-1-0.9-1   c-0.5,0-1,0.4-1.1,1H449.9z"/>
	<path class="st0" d="M453,241.7c-0.8,0-1.3-0.9-1.3,0h-0.2v-1.8h0.2c0,0.6,0.5,1.4,1.3,1.4c0.4,0,0.7-0.3,0.7-0.6   c0-0.3-0.3-0.5-0.7-0.8l-0.7-0.4c-0.6-0.3-0.8-0.9-0.8-1.3c0-0.7,0.6-1.1,1.2-1.1c0.9,0,1.1,0.7,1.1,0h0.3v1.5h-0.3   c0-0.5-0.4-1.1-1-1.1c-0.4,0-0.6,0.2-0.6,0.5c0,0.3,0.2,0.5,0.7,0.8l0.6,0.3c0.5,0.3,0.8,0.8,0.8,1.2   C454.5,241.2,453.8,241.7,453,241.7z"/>
	<path class="st0" d="M456.6,241.7c-0.8,0-1.3-0.9-1.3,0H455v-1.8h0.2c0,0.6,0.5,1.4,1.3,1.4c0.4,0,0.7-0.3,0.7-0.6   c0-0.3-0.3-0.5-0.7-0.8l-0.7-0.4c-0.6-0.3-0.8-0.9-0.8-1.3c0-0.7,0.6-1.1,1.2-1.1c0.9,0,1.1,0.7,1.1,0h0.3v1.5h-0.3   c0-0.5-0.4-1.1-1-1.1c-0.4,0-0.6,0.2-0.6,0.5c0,0.3,0.2,0.5,0.7,0.8l0.6,0.3c0.5,0.3,0.8,0.8,0.8,1.2   C458,241.2,457.3,241.7,456.6,241.7z"/>
	<path class="st0" d="M462.8,239.7c0,1.3,0.2,1.5,1.2,1.5v0.3h-2.7v-0.3c1,0,1.1-0.2,1.1-1.5v-4.1c0-1.3-0.1-1.5-1.1-1.5v-0.3h2   l2.5,6.2l2.5-6.2h1.9v0.3c-1,0-1.2,0.2-1.2,1.5v4.1c0,1.3,0.1,1.5,1.2,1.5v0.3H467v-0.3c1,0,1.1-0.2,1.1-1.5v-4.1l-2.5,6.1h-0.2   l-2.7-6.5V239.7z"/>
	<path class="st0" d="M474,241.6c-0.5,0-0.8-0.3-0.8-0.7c-0.6,0.6-1,0.8-1.5,0.8c-0.6,0-1.1-0.4-1.1-1.1c0-1.1,1.2-1.5,2.6-1.8   c0-0.9-0.1-1.3-0.8-1.3c-0.3,0-0.7,0.2-0.7,0.6c0,0.3-0.2,0.4-0.4,0.4c-0.2,0-0.4-0.2-0.4-0.4c0-0.6,0.8-1,1.5-1   c1.2,0,1.6,0.5,1.6,1.7v1.9c0,0.3,0.1,0.5,0.3,0.5c0.1,0,0.3-0.1,0.3-0.2l0.2,0.2C474.6,241.5,474.3,241.6,474,241.6z M473.2,239.2   c-1.1,0.3-1.7,0.7-1.7,1.3c0,0.4,0.3,0.6,0.6,0.6c0.3,0,0.5-0.1,1.1-0.6V239.2z"/>
	<path class="st0" d="M478.8,238.4c-0.2,0-0.4-0.2-0.4-0.5c0-0.3-0.1-0.4-0.4-0.4c-0.3,0-0.9,0.5-0.9,1.5v0.7c0,1.3,0.1,1.5,0.9,1.5   v0.3h-2.8v-0.3c0.8,0,0.9-0.2,0.9-1.5v-0.6c0-1.3-0.2-1.5-0.9-1.5v-0.3l1.6-0.3c0.1,0.1,0.2,0.6,0.2,0.9c0.2-0.5,0.8-0.9,1.3-0.9   c0.7,0,1,0.5,1,0.8C479.3,238.1,479.2,238.4,478.8,238.4z"/>
	<path class="st0" d="M481.5,241.5c1.7,0.1,2.2,0.9,2.2,1.7c0,1-0.9,1.7-2.1,1.7c-2,0-2.8-1.6-1.3-2.4l0.2,0.1   c-1,1.2,0.2,1.7,1.1,1.7c0.7,0,1.5-0.4,1.5-1c0-0.6-0.6-0.8-1.6-0.9c-1-0.1-1.7-0.4-1.7-1.2c0-0.5,0.4-0.8,1-1   c-0.6-0.3-1-0.9-1-1.5c0-0.9,0.8-1.7,1.8-1.7c0.5,0,0.9,0.2,1.2,0.5c0.2-0.3,0.6-0.5,0.9-0.5c0.8,0,0.9,1,0.4,1.1   c-0.5,0-0.2-0.6-0.7-0.6c-0.1,0-0.2,0.1-0.4,0.2c0.2,0.3,0.3,0.6,0.3,1c0,0.9-0.8,1.6-1.6,1.7c-0.5,0.1-1.3,0.2-1.3,0.5   C480.5,241.4,481.1,241.5,481.5,241.5z M481.6,237.5c-0.6,0-0.9,0.6-0.9,1.3c0,0.7,0.3,1.3,0.9,1.3c0.6,0,0.9-0.6,0.9-1.3   C482.4,238,482.2,237.5,481.6,237.5z"/>
	<path class="st0" d="M488.2,241.6c-0.5,0-0.8-0.3-0.8-0.7c-0.6,0.6-1,0.8-1.5,0.8c-0.6,0-1.1-0.4-1.1-1.1c0-1.1,1.2-1.5,2.6-1.8   c0-0.9-0.1-1.3-0.8-1.3c-0.3,0-0.7,0.2-0.7,0.6c0,0.3-0.2,0.4-0.4,0.4c-0.2,0-0.4-0.2-0.4-0.4c0-0.6,0.8-1,1.5-1   c1.2,0,1.6,0.5,1.6,1.7v1.9c0,0.3,0.1,0.5,0.3,0.5c0.1,0,0.3-0.1,0.3-0.2l0.2,0.2C488.8,241.5,488.5,241.6,488.2,241.6z    M487.4,239.2c-1.1,0.3-1.7,0.7-1.7,1.3c0,0.4,0.3,0.6,0.6,0.6c0.3,0,0.5-0.1,1.1-0.6V239.2z"/>
	<path class="st0" d="M493,238.4c-0.2,0-0.4-0.2-0.4-0.5c0-0.3-0.1-0.4-0.4-0.4c-0.3,0-0.9,0.5-0.9,1.5v0.7c0,1.3,0.1,1.5,0.9,1.5   v0.3h-2.7v-0.3c0.8,0,0.9-0.2,0.9-1.5v-0.6c0-1.3-0.2-1.5-0.9-1.5v-0.3l1.6-0.3c0.1,0.1,0.2,0.6,0.2,0.9c0.2-0.5,0.8-0.9,1.3-0.9   c0.7,0,1,0.5,1,0.8C493.4,238.1,493.3,238.4,493,238.4z"/>
	<path class="st0" d="M496.3,241.2c0.4,0,1-0.2,1.3-0.6l0.2,0.3c-0.4,0.5-1.2,0.8-1.8,0.8c-1.3,0-2.2-1-2.2-2.3   c0-1.3,1.1-2.3,2.2-2.3c1.1,0,1.9,0.9,1.6,2h-2.9C494.6,240.2,495.1,241.2,496.3,241.2z M496.8,238.6c0.1-0.4-0.1-1-0.9-1   c-0.5,0-1,0.4-1.1,1H496.8z"/>
	<path class="st0" d="M498.2,237.7v-0.3c0.7-0.2,1-0.7,1.1-1.5h0.4v1.4h1v0.4h-1v2.6c0,0.6,0.2,0.9,0.5,0.9c0.2,0,0.5-0.2,0.8-0.4   l0.2,0.2c-0.3,0.4-0.9,0.7-1.3,0.7c-0.7,0-1.1-0.4-1.1-1.4v-2.6H498.2z"/>
</g>
<path class="st0" d="M430.2,246.7h-0.3l-0.1-0.3c-0.2-0.7-0.3-1-1.4-1h-1.6v5.4c0,1.3,0.2,1.5,1.1,1.5v0.3h-3.3v-0.3  c1,0,1.2-0.2,1.2-1.5v-5.4h-1.6c-1.1,0-1.2,0.3-1.4,1l-0.1,0.3h-0.3l0.1-1.7h7.3L430.2,246.7z"/>
<path class="st0" d="M431.5,252.8c-1.3,0-2.4-1.1-2.4-2.3c0-1.3,1.1-2.3,2.4-2.3c1.3,0,2.4,1,2.4,2.3  C433.9,251.7,432.8,252.8,431.5,252.8z M431.5,248.6c-1,0-1.5,0.8-1.5,1.8c0,1,0.5,1.8,1.5,1.8c1,0,1.5-0.8,1.5-1.8  C432.9,249.4,432.5,248.6,431.5,248.6z"/>
<path class="st0" d="M437.9,249.5c-0.2,0-0.4-0.2-0.4-0.5c0-0.3-0.1-0.4-0.4-0.4c-0.3,0-0.9,0.5-0.9,1.5v0.7c0,1.3,0.1,1.5,0.9,1.5  v0.3h-2.8v-0.3c0.8,0,0.9-0.2,0.9-1.5v-0.6c0-1.3-0.2-1.5-0.9-1.5v-0.3l1.6-0.3c0.1,0.1,0.2,0.6,0.2,0.9c0.2-0.5,0.8-0.9,1.3-0.9  c0.7,0,1,0.5,1,0.8C438.4,249.2,438.2,249.5,437.9,249.5z"/>
<path class="st0" d="M441.4,252.8c-1.3,0-2.4-1.1-2.4-2.3c0-1.3,1.1-2.3,2.4-2.3c1.3,0,2.4,1,2.4,2.3  C443.8,251.7,442.7,252.8,441.4,252.8z M441.4,248.6c-1,0-1.5,0.8-1.5,1.8c0,1,0.5,1.8,1.5,1.8c1,0,1.5-0.8,1.5-1.8  C442.8,249.4,442.4,248.6,441.4,248.6z"/>
<path class="st0" d="M447.7,248.1c1.1,0,1.6,0.8,1.6,1.9v0.8c0,1.3,0.1,1.5,1,1.5v0.3h-2.8v-0.3c0.8,0,1-0.2,1-1.5v-0.7  c0-0.8-0.3-1.4-1-1.4c-0.7,0-1.4,0.6-1.4,1.3v0.8c0,1.3,0.1,1.5,0.8,1.5v0.3h-2.6v-0.3c0.8,0,1-0.2,1-1.5v-0.6c0-1.3-0.2-1.5-1-1.5  v-0.3l1.6-0.3c0.1,0.1,0.2,0.6,0.2,0.9C446.4,248.6,446.9,248.1,447.7,248.1z"/>
<path class="st0" d="M450.3,248.8v-0.3c0.7-0.2,1-0.7,1.1-1.5h0.4v1.4h1v0.4h-1v2.6c0,0.6,0.2,0.9,0.5,0.9c0.2,0,0.5-0.2,0.8-0.4  l0.2,0.2c-0.3,0.4-0.9,0.7-1.3,0.7c-0.7,0-1.1-0.4-1.1-1.4v-2.6H450.3z"/>
<path class="st0" d="M456,252.8c-1.3,0-2.4-1.1-2.4-2.3c0-1.3,1.1-2.3,2.4-2.3c1.3,0,2.4,1,2.4,2.3  C458.5,251.7,457.4,252.8,456,252.8z M456,248.6c-1,0-1.5,0.8-1.5,1.8c0,1,0.5,1.8,1.5,1.8c1,0,1.5-0.8,1.5-1.8  C457.5,249.4,457,248.6,456,248.6z"/>
<path class="st0" d="M466.2,250.7c0.7,0.9,1.5,1.5,2.2,1.6v0.3h-2l-2.4-3.3h-0.6v1.6c0,1.3,0.1,1.5,1.1,1.5v0.3h-3.2v-0.3  c1,0,1.1-0.2,1.1-1.5v-4.1c0-1.3-0.2-1.5-1.1-1.5V245h3.2c1.7,0,2.6,1,2.6,2.1c0,1.1-0.8,2-2.1,2.1L466.2,250.7z M466.1,247.1  c0-0.9-0.5-1.7-1.5-1.7h-1.1v3.3h1.1C465.7,248.8,466.1,248,466.1,247.1z"/>
<path class="st0" d="M471.1,252.2c0.4,0,1-0.2,1.3-0.6l0.2,0.3c-0.4,0.5-1.2,0.8-1.8,0.8c-1.3,0-2.2-1.1-2.2-2.3  c0-1.3,1.1-2.3,2.2-2.3c1.1,0,1.9,0.9,1.6,2h-2.9C469.4,251.3,469.8,252.2,471.1,252.2z M471.6,249.6c0.1-0.4-0.1-1-0.9-1  c-0.5,0-1,0.4-1.1,1H471.6z"/>
<path class="st0" d="M476.1,252.5v-0.3c0.8,0,0.9-0.2,0.9-1.5v-0.7c0-0.8-0.3-1.4-0.9-1.4c-0.6,0-1.3,0.5-1.3,1.3v0.8  c0,1.3,0.1,1.5,0.8,1.5v0.3h-2.6v-0.3c0.8,0,1-0.2,1-1.5v-4c0-1.3-0.1-1.5-1-1.5v-0.3l1.8-0.3v4.3c0.3-0.4,0.9-0.9,1.6-0.9  c1.1,0,1.5,0.8,1.5,1.9v0.8c0,1.3,0.2,1.5,1,1.5v0.3H476.1z"/>
<path class="st0" d="M482.6,252.7c-0.5,0-0.8-0.3-0.8-0.7c-0.6,0.6-1,0.8-1.5,0.8c-0.6,0-1.1-0.4-1.1-1.1c0-1.1,1.2-1.5,2.6-1.8  c0-0.9-0.1-1.3-0.8-1.3c-0.3,0-0.7,0.2-0.7,0.6c0,0.3-0.2,0.4-0.4,0.4c-0.2,0-0.4-0.2-0.4-0.4c0-0.6,0.8-1,1.5-1  c1.2,0,1.6,0.5,1.6,1.7v1.9c0,0.3,0.1,0.5,0.3,0.5c0.1,0,0.3-0.1,0.3-0.2l0.2,0.2C483.1,252.5,482.8,252.7,482.6,252.7z   M481.7,250.2c-1.1,0.3-1.7,0.7-1.7,1.3c0,0.4,0.3,0.6,0.6,0.6c0.3,0,0.5-0.1,1.1-0.6V250.2z"/>
<path class="st0" d="M484.3,252.8h-0.3v-6c0-1.3-0.2-1.5-1-1.5v-0.3l1.8-0.3v4.1c0.4-0.5,0.9-0.7,1.5-0.7c1.1,0,2.1,1,2.1,2.3  c0,1.3-0.9,2.3-2.1,2.3c-0.6,0-1.2-0.3-1.5-0.8L484.3,252.8z M484.9,251.2c0.2,0.6,0.7,1,1.2,1c0.9,0,1.4-0.8,1.4-1.8  c0-1-0.4-1.8-1.4-1.8c-0.6,0-1,0.4-1.2,1V251.2z"/>
<g>
	<path class="st0" d="M424.3,257.3v4.5c0,1.3,0.2,1.5,1.2,1.5v0.3h-2.9v-0.3c1.1,0,1.2-0.2,1.2-1.5v-4.1c0-1.3-0.2-1.5-1.2-1.5V256   h2.2l2.7,6.2l2.7-6.2h2v0.3c-1.1,0-1.2,0.2-1.2,1.5v4.1c0,1.3,0.2,1.5,1.2,1.5v0.3h-3.4v-0.3c1,0,1.2-0.2,1.2-1.5v-4.1l-2.6,6.1   h-0.2L424.3,257.3z"/>
	<path class="st0" d="M432.3,263.3c0.8,0,1-0.2,1-1.5v-0.6c0-1.3-0.2-1.5-1-1.5v-0.3l1.9-0.3v2.7c0,1.3,0.2,1.5,1,1.5v0.3h-2.9   V263.3z M433.2,257.3c0-0.3,0.3-0.6,0.6-0.6s0.6,0.3,0.6,0.6c0,0.3-0.3,0.6-0.6,0.6S433.2,257.7,433.2,257.3z"/>
	<path class="st0" d="M435.4,261.6c0-1.5,1.2-2.4,2.2-2.4c1.1,0,1.5,0.4,1.5,0.9c0,0.2-0.1,0.5-0.6,0.5c-0.3,0-0.5-0.2-0.5-0.5   c0-0.4-0.2-0.5-0.5-0.5c-0.7,0-1.2,0.9-1.2,2c0,1,0.5,1.7,1.5,1.7c0.4,0,0.9-0.2,1.4-0.6l0.2,0.3c-0.5,0.5-1.2,0.8-1.9,0.8   C436.2,263.8,435.4,262.8,435.4,261.6z"/>
	<path class="st0" d="M439.3,263.3c0.8,0,1-0.2,1-1.5v-4c0-1.3-0.2-1.5-1-1.5v-0.3l1.9-0.3v4.3c0.4-0.4,0.9-0.9,1.7-0.9   c1.2,0,1.6,0.8,1.6,1.9v0.8c0,1.3,0.2,1.5,1,1.5v0.3h-2.8v-0.3c0.8,0,0.9-0.2,0.9-1.5v-0.7c0-0.8-0.3-1.4-0.9-1.4   c-0.6,0-1.4,0.5-1.4,1.3v0.8c0,1.3,0.1,1.5,0.8,1.5v0.3h-2.7V263.3z"/>
	<path class="st0" d="M445.6,261.5c0-1.3,1.2-2.3,2.3-2.3c1.1,0,2,0.9,1.7,2h-3c-0.2,1.2,0.3,2.1,1.6,2.1c0.4,0,1-0.2,1.4-0.6   l0.2,0.3c-0.4,0.5-1.2,0.8-1.9,0.8C446.5,263.8,445.6,262.7,445.6,261.5z M448.8,260.7c0.1-0.4-0.1-1-0.9-1c-0.5,0-1,0.4-1.2,1   H448.8z"/>
	<path class="st0" d="M450.1,263.3c0.8,0,1-0.2,1-1.5v-0.6c0-1.3-0.2-1.5-1-1.5v-0.3l1.7-0.3c0.1,0.1,0.2,0.6,0.2,0.9   c0.3-0.4,0.9-0.9,1.8-0.9c1.1,0,1.6,0.8,1.6,1.9v0.8c0,1.3,0.2,1.5,1,1.5v0.3h-2.9v-0.3c0.8,0,1-0.2,1-1.5v-0.7   c0-0.8-0.3-1.4-1.1-1.4c-0.7,0-1.5,0.6-1.5,1.3v0.8c0,1.3,0.1,1.5,0.9,1.5v0.3h-2.8V263.3z"/>
	<path class="st0" d="M456.5,261.5c0-1.3,1.2-2.3,2.3-2.3c1.1,0,2,0.9,1.7,2h-3c-0.2,1.2,0.3,2.1,1.6,2.1c0.4,0,1-0.2,1.4-0.6   l0.2,0.3c-0.4,0.5-1.2,0.8-1.9,0.8C457.5,263.8,456.5,262.7,456.5,261.5z M459.7,260.7c0.1-0.4-0.1-1-0.9-1c-0.5,0-1,0.4-1.2,1   H459.7z"/>
	<path class="st0" d="M461.1,263.3c0.8,0,1-0.2,1-1.5v-0.6c0-1.3-0.2-1.5-1-1.5v-0.3l1.7-0.3c0.1,0.1,0.2,0.6,0.2,0.9   c0.3-0.5,0.8-0.9,1.3-0.9c0.7,0,1,0.5,1,0.8c0,0.3-0.1,0.6-0.5,0.6c-0.2,0-0.4-0.2-0.4-0.5c0-0.3-0.2-0.4-0.4-0.4   c-0.3,0-1,0.5-1,1.5v0.7c0,1.3,0.2,1.5,1,1.5v0.3h-2.9V263.3z"/>
	<path class="st0" d="M467.6,263.3c1.1,0,1.2-0.2,1.2-1.5v-4.1c0-1.3-0.2-1.5-1.2-1.5V256h3.4v0.3c-1.1,0-1.2,0.2-1.2,1.5v4.1   c0,1.3,0.2,1.5,1.2,1.5v0.3h-3.4V263.3z"/>
	<path class="st0" d="M471.3,263.3c0.8,0,1-0.2,1-1.5v-0.6c0-1.3-0.2-1.5-1-1.5v-0.3l1.7-0.3c0.1,0.1,0.2,0.6,0.2,0.9   c0.3-0.4,0.9-0.9,1.8-0.9c1.1,0,1.6,0.8,1.6,1.9v0.8c0,1.3,0.2,1.5,1,1.5v0.3h-2.9v-0.3c0.8,0,1-0.2,1-1.5v-0.7   c0-0.8-0.3-1.4-1.1-1.4c-0.7,0-1.5,0.6-1.5,1.3v0.8c0,1.3,0.1,1.5,0.9,1.5v0.3h-2.8V263.3z"/>
	<path class="st0" d="M477.7,261.9h0.3c0,0.6,0.5,1.4,1.4,1.4c0.4,0,0.7-0.3,0.7-0.6c0-0.3-0.3-0.5-0.7-0.8l-0.7-0.4   c-0.6-0.3-0.8-0.9-0.8-1.3c0-0.7,0.6-1.2,1.3-1.2c0.7,0,0.9,0.3,1.1,0.3c0.1,0,0.1-0.1,0.1-0.3h0.3v1.5h-0.3c0-0.5-0.4-1.1-1-1.1   c-0.4,0-0.6,0.2-0.6,0.5c0,0.3,0.2,0.5,0.8,0.8l0.6,0.3c0.6,0.3,0.9,0.8,0.9,1.2c0,0.8-0.7,1.4-1.5,1.4c-0.6,0-1-0.4-1.2-0.4   c-0.1,0-0.2,0.1-0.2,0.4h-0.3V261.9z"/>
	<path class="st0" d="M481.7,262.3v-2.5h-0.7v-0.3c0.8-0.2,1-0.7,1.1-1.5h0.4v1.4h1.1v0.4h-1.1v2.5c0,0.6,0.2,0.9,0.6,0.9   c0.2,0,0.5-0.2,0.8-0.4l0.2,0.2c-0.4,0.4-0.9,0.7-1.3,0.7C482.2,263.8,481.7,263.3,481.7,262.3z"/>
	<path class="st0" d="M484.2,263.3c0.8,0,1-0.2,1-1.5v-0.6c0-1.3-0.2-1.5-1-1.5v-0.3l1.9-0.3v2.7c0,1.3,0.2,1.5,1,1.5v0.3h-2.9   V263.3z M485.1,257.3c0-0.3,0.3-0.6,0.6-0.6c0.3,0,0.6,0.3,0.6,0.6c0,0.3-0.3,0.6-0.6,0.6C485.4,257.9,485.1,257.7,485.1,257.3z"/>
	<path class="st0" d="M487.7,262.3v-2.5H487v-0.3c0.8-0.2,1-0.7,1.1-1.5h0.4v1.4h1.1v0.4h-1.1v2.5c0,0.6,0.2,0.9,0.6,0.9   c0.2,0,0.5-0.2,0.8-0.4l0.2,0.2c-0.4,0.4-0.9,0.7-1.3,0.7C488.2,263.8,487.7,263.3,487.7,262.3z"/>
	<path class="st0" d="M491,261.9v-0.8c0-1.3-0.2-1.5-1-1.5v-0.3h1.9v2.5c0,0.8,0.3,1.4,1,1.4c0.5,0,1.4-0.5,1.4-1.3v-0.8   c0-1.3-0.2-1.5-1-1.5v-0.3h1.9v2.4c0,1.3,0.2,1.5,1,1.5v0.3l-1.7,0.3c-0.1-0.1-0.2-0.6-0.2-0.8c-0.3,0.3-0.9,0.8-1.7,0.8   C491.4,263.8,491,263,491,261.9z"/>
	<path class="st0" d="M496.6,262.3v-2.5H496v-0.3c0.8-0.2,1-0.7,1.1-1.5h0.4v1.4h1.1v0.4h-1.1v2.5c0,0.6,0.2,0.9,0.6,0.9   c0.2,0,0.5-0.2,0.8-0.4l0.2,0.2c-0.4,0.4-0.9,0.7-1.3,0.7C497.1,263.8,496.6,263.3,496.6,262.3z"/>
	<path class="st0" d="M499.3,261.5c0-1.3,1.2-2.3,2.3-2.3c1.1,0,2,0.9,1.7,2h-3c-0.2,1.2,0.3,2.1,1.6,2.1c0.4,0,1-0.2,1.4-0.6   l0.2,0.3c-0.4,0.5-1.2,0.8-1.9,0.8C500.2,263.8,499.3,262.7,499.3,261.5z M502.5,260.7c0.1-0.4-0.1-1-0.9-1c-0.5,0-1,0.4-1.2,1   H502.5z"/>
</g>
</svg>