<svg width="126" height="629" viewBox="0 0 126 629" fill="none" xmlns="http://www.w3.org/2000/svg">
<path d="M32.7353 628.928L32.7354 472.008L0.455322 472.008L0.455315 628.928L32.7353 628.928Z" fill="#9D3583"/>
<path d="M125.497 78.457L32.7371 78.457" stroke="#F8B634" stroke-width="3" stroke-miterlimit="10"/>
<path d="M125.497 393.129L32.7371 393.129" stroke="#FA4B44" stroke-width="3" stroke-miterlimit="10"/>
<path d="M125.498 550.469L32.7382 550.469" stroke="#9D3583" stroke-width="3" stroke-miterlimit="10"/>
<path d="M125.499 235.801L32.7391 235.801" stroke="#F9813C" stroke-width="3" stroke-miterlimit="10"/>
<path d="M0.339851 156.92L0.339844 0L32.6199 -1.411e-06L32.6199 156.92L0.339851 156.92Z" fill="#F8B634"/>
<path d="M14.505 78.4598L32.6211 60.3438L50.7372 78.4598L32.6211 96.5759L14.505 78.4598Z" fill="#F8B634"/>
<path d="M32.7373 314.26L32.7373 157.34L0.457275 157.34L0.457269 314.26L32.7373 314.26Z" fill="#F9813C"/>
<path d="M50.8534 235.8L32.7373 217.684L14.6212 235.8L32.7373 253.916L50.8534 235.8Z" fill="#F9813C"/>
<path d="M0.343757 471.588L0.34375 314.668L32.6238 314.668L32.6238 471.588L0.343757 471.588Z" fill="#FA4B44"/>
<path d="M14.505 393.14L32.6211 375.023L50.7372 393.14L32.6211 411.256L14.505 393.14Z" fill="#FA4B44"/>
<path d="M50.8475 550.464L32.7314 532.348L14.6154 550.464L32.7314 568.58L50.8475 550.464Z" fill="#9D3583"/>
</svg>
