<svg width="1377" height="468" viewBox="0 0 1377 468" fill="none" xmlns="http://www.w3.org/2000/svg">
<g clip-path="url(#clip0_65_395)">
<path d="M1234.67 74C1223.62 74 1214.67 65.0457 1214.67 54V20C1214.67 8.95431 1205.71 0 1194.67 0H20.668C9.62231 0 0.667969 8.95431 0.667969 20V415C0.667969 426.046 9.62231 435 20.668 435H58.168H157.168C166.281 435 173.668 442.387 173.668 451.5C173.668 460.613 181.055 468 190.168 468H1271.17C1282.21 468 1291.17 459.046 1291.17 448V429C1291.17 417.954 1300.12 409 1311.17 409H1356.67C1367.71 409 1376.67 400.046 1376.67 389V94C1376.67 82.9543 1367.71 74 1356.67 74H1234.67Z" fill="#79ED9E"/>
<path fill-rule="evenodd" clip-rule="evenodd" d="M711.168 -5.72956C459.2 -5.72956 254.938 198.532 254.938 450.5C254.938 702.469 459.2 906.73 711.168 906.73C963.137 906.73 1167.4 702.469 1167.4 450.5C1167.4 198.532 963.137 -5.72956 711.168 -5.72956ZM184.205 450.5C184.205 159.467 420.135 -76.4629 711.168 -76.4629C1002.2 -76.4629 1238.13 159.467 1238.13 450.5C1238.13 741.534 1002.2 977.464 711.168 977.464C420.135 977.464 184.205 741.534 184.205 450.5Z" fill="url(#paint0_linear_65_395)" fill-opacity="0.04"/>
<path fill-rule="evenodd" clip-rule="evenodd" d="M711.169 110.979C523.658 110.979 371.649 262.988 371.649 450.499C371.649 638.011 523.658 790.019 711.169 790.019C898.681 790.019 1050.69 638.011 1050.69 450.499C1050.69 262.988 898.681 110.979 711.169 110.979ZM300.916 450.499C300.916 223.923 484.593 40.2461 711.169 40.2461C937.746 40.2461 1121.42 223.923 1121.42 450.499C1121.42 677.076 937.746 860.753 711.169 860.753C484.593 860.753 300.916 677.076 300.916 450.499Z" fill="url(#paint1_linear_65_395)" fill-opacity="0.04"/>
<path fill-rule="evenodd" clip-rule="evenodd" d="M711.168 241.839C595.927 241.839 502.505 335.261 502.505 450.502C502.505 565.744 595.927 659.165 711.168 659.165C826.41 659.165 919.831 565.744 919.831 450.502C919.831 335.261 826.41 241.839 711.168 241.839ZM431.771 450.502C431.771 296.196 556.862 171.105 711.168 171.105C865.475 171.105 990.565 296.196 990.565 450.502C990.565 604.809 865.475 729.899 711.168 729.899C556.862 729.899 431.771 604.809 431.771 450.502Z" fill="url(#paint2_linear_65_395)" fill-opacity="0.04"/>
<path fill-rule="evenodd" clip-rule="evenodd" d="M711.169 372.694C668.197 372.694 633.362 407.529 633.362 450.501C633.362 493.472 668.197 528.308 711.169 528.308C754.14 528.308 788.976 493.472 788.976 450.501C788.976 407.529 754.14 372.694 711.169 372.694ZM562.629 450.501C562.629 368.465 629.133 301.961 711.169 301.961C793.205 301.961 859.709 368.465 859.709 450.501C859.709 532.537 793.205 599.041 711.169 599.041C629.133 599.041 562.629 532.537 562.629 450.501Z" fill="url(#paint3_linear_65_395)" fill-opacity="0.04"/>
</g>
<defs>
<linearGradient id="paint0_linear_65_395" x1="711.168" y1="-76.4629" x2="711.168" y2="977.464" gradientUnits="userSpaceOnUse">
<stop stop-opacity="0.71"/>
<stop offset="0.675" stop-opacity="0"/>
</linearGradient>
<linearGradient id="paint1_linear_65_395" x1="711.169" y1="40.2461" x2="711.169" y2="860.753" gradientUnits="userSpaceOnUse">
<stop stop-opacity="0.71"/>
<stop offset="0.675" stop-opacity="0"/>
</linearGradient>
<linearGradient id="paint2_linear_65_395" x1="711.168" y1="171.105" x2="711.168" y2="729.899" gradientUnits="userSpaceOnUse">
<stop stop-opacity="0.71"/>
<stop offset="0.675" stop-opacity="0"/>
</linearGradient>
<linearGradient id="paint3_linear_65_395" x1="711.169" y1="301.961" x2="711.169" y2="599.041" gradientUnits="userSpaceOnUse">
<stop stop-opacity="0.71"/>
<stop offset="0.675" stop-opacity="0"/>
</linearGradient>
<clipPath id="clip0_65_395">
<rect width="1376" height="468" fill="white" transform="translate(0.667969)"/>
</clipPath>
</defs>
</svg>
