<svg width="25" height="25" viewBox="0 0 25 25" fill="none" xmlns="http://www.w3.org/2000/svg">
<path d="M3.66797 5.5C3.66797 4.39543 4.5634 3.5 5.66797 3.5H8.94721C9.37764 3.5 9.75978 3.77543 9.89589 4.18377L11.3937 8.67721C11.5511 9.14932 11.3373 9.66531 10.8922 9.88787L8.63497 11.0165C9.73722 13.4612 11.7068 15.4308 14.1515 16.533L15.2801 14.2757C15.5027 13.8306 16.0186 13.6169 16.4908 13.7743L20.9842 15.2721C21.3925 15.4082 21.668 15.7903 21.668 16.2208V19.5C21.668 20.6046 20.7725 21.5 19.668 21.5H18.668C10.3837 21.5 3.66797 14.7843 3.66797 6.5V5.5Z" stroke="#101010" stroke-width="2" stroke-linecap="round" stroke-linejoin="round"/>
</svg>
