<svg width="25" height="25" viewBox="0 0 25 25" fill="none" xmlns="http://www.w3.org/2000/svg">
<circle cx="12.668" cy="12.8994" r="12" fill="white"/>
<rect x="4.66797" y="5.39941" width="16" height="16" rx="8" fill="#178CD8"/>
<path d="M16.6681 17.3994C16.9334 17.3994 17.1877 17.2941 17.3752 17.1065C17.5628 16.919 17.6681 16.6646 17.6681 16.3994V13.9574C17.6681 13.6922 17.5628 13.4378 17.3752 13.2503C17.1877 13.0628 16.9334 12.9574 16.6681 12.9574H15.2801C15.2801 12.6064 15.3011 12.2544 15.3421 11.9034C15.4041 11.5314 15.5081 11.2004 15.6521 10.9114C15.7971 10.6214 15.9831 10.3944 16.2111 10.2284C16.4381 10.0424 16.7271 9.94941 17.0791 9.94941V8.39941C16.5001 8.39941 15.9941 8.52341 15.5591 8.77141C15.1279 9.0169 14.7572 9.35587 14.4741 9.76341C14.1901 10.2127 13.9807 10.7051 13.8541 11.2214C13.7266 11.7912 13.6642 12.3736 13.6681 12.9574V16.3994C13.6681 16.6646 13.7735 16.919 13.961 17.1065C14.1486 17.2941 14.4029 17.3994 14.6681 17.3994H16.6681ZM10.6681 17.3994C10.9334 17.3994 11.1877 17.2941 11.3752 17.1065C11.5628 16.919 11.6681 16.6646 11.6681 16.3994V13.9574C11.6681 13.6922 11.5628 13.4378 11.3752 13.2503C11.1877 13.0628 10.9334 12.9574 10.6681 12.9574H9.28014C9.28014 12.6064 9.30114 12.2544 9.34214 11.9034C9.40414 11.5314 9.50814 11.2004 9.65214 10.9114C9.79714 10.6214 9.98314 10.3944 10.2111 10.2284C10.4381 10.0424 10.7271 9.94941 11.0791 9.94941V8.39941C10.5001 8.39941 9.99414 8.52341 9.55914 8.77141C9.12793 9.0169 8.75718 9.35587 8.47414 9.76341C8.19007 10.2127 7.98069 10.7051 7.85414 11.2214C7.72663 11.7912 7.66423 12.3736 7.66814 12.9574V16.3994C7.66814 16.6646 7.7735 16.919 7.96104 17.1065C8.14857 17.2941 8.40293 17.3994 8.66814 17.3994H10.6681Z" fill="white"/>
</svg>
