<svg width="240" height="42" viewBox="0 0 240 42" fill="none" xmlns="http://www.w3.org/2000/svg">
<g clip-path="url(#clip0_65_52)">
<path d="M3.97584 15.369C4.35327 15.087 4.5988 14.7136 4.72055 14.3098C4.73476 14.2611 4.7794 14.2286 4.83013 14.2307L8.35685 14.3768C8.3609 14.3991 8.36496 14.4194 8.36902 14.4417C8.65108 15.5192 9.67176 16.2842 10.7858 16.2517C10.8832 16.2497 10.9806 16.2396 11.0759 16.2274C12.2265 16.061 13.3973 16.3654 14.3328 17.0553L14.8462 17.4348C15.7776 18.1226 16.3498 19.1514 16.5892 20.2817C16.6075 20.3994 16.6298 20.5191 16.6663 20.6368C16.8327 21.1887 17.196 21.6494 17.6606 21.9558C17.6728 21.9639 17.685 21.972 17.6972 21.9781C17.756 22.0166 17.8169 22.0511 17.8798 22.0836C17.892 22.0897 17.9062 22.0978 17.9184 22.1039C18.0705 22.181 18.2329 22.2399 18.3993 22.2845C18.4033 22.2845 18.4094 22.2865 18.4135 22.2886C18.6326 22.3433 18.8619 22.3697 19.0953 22.3596C19.0993 22.3596 19.1014 22.3596 19.1054 22.3596C19.1054 22.3596 19.1054 22.3596 19.1075 22.3596C19.1217 22.3596 19.1338 22.3596 19.148 22.3596C19.1683 22.3596 19.1866 22.3555 19.2069 22.3535C19.2251 22.3535 19.2414 22.3494 19.2596 22.3474C19.2962 22.3433 19.3327 22.3413 19.3672 22.3352C20.4954 22.1364 21.6561 22.3048 22.6017 22.9501L23.249 23.3904C24.225 24.056 24.8683 25.0868 25.1179 26.2414C25.1321 26.3043 25.1483 26.3672 25.1666 26.4301C25.4831 27.4934 26.5119 28.2199 27.6199 28.161C29.2392 28.0738 30.3187 26.491 29.8134 24.9508C29.4685 23.8977 28.4194 23.2037 27.3135 23.293C27.2424 23.2991 27.1734 23.3072 27.1045 23.3194C25.9417 23.5121 24.7506 23.2829 23.7766 22.6193L23.245 22.2561C23.1131 22.1668 22.9872 22.0694 22.8696 21.9659C21.4126 20.7017 21.1001 18.5102 22.137 16.8828C22.2243 16.7469 22.3196 16.6129 22.4252 16.4851L22.8493 15.9677C23.5919 15.0606 24.6735 14.529 25.8362 14.3788C25.9052 14.3707 25.9762 14.3585 26.0473 14.3423C26.9218 14.1536 27.7903 13.2526 27.9303 12.3679C27.9689 12.1284 27.9709 11.8971 27.9445 11.6759C27.8877 11.2011 28.0785 10.7303 28.4599 10.4442L30.966 8.55708C31.1689 8.40286 31.455 8.42924 31.6316 8.61187C32.009 8.99944 32.5122 9.26527 33.0682 9.33223C33.1656 9.3444 33.263 9.35049 33.3584 9.35049C34.5211 9.35658 35.6311 9.83344 36.4549 10.6553L36.9074 11.1078C36.9074 11.1078 36.9237 11.124 36.9318 11.1321C38.0945 12.3151 37.3112 14.326 35.6595 14.462L33.7277 14.6203C33.61 14.2692 33.3848 13.9486 33.0378 13.7153C32.4311 13.3074 31.6113 13.3216 31.0228 13.7558C30.0508 14.4721 30.0569 15.9108 31.0411 16.619C31.6376 17.0472 32.4615 17.0512 33.0621 16.6292C33.4822 16.3349 33.7236 15.9088 33.7947 15.4604L37.2179 15.1783C37.8287 15.1276 38.4293 15.3609 38.8392 15.8155C39.4601 16.5034 40.4605 16.8422 41.4751 16.4709C42.1488 16.2233 42.6886 15.6836 42.9341 15.0099C43.4982 13.4636 42.4085 11.9438 40.9536 11.7672C40.8582 11.7551 40.7629 11.749 40.6695 11.749C39.5028 11.7388 38.3908 11.2681 37.5649 10.4442L37.1083 9.98765C36.2906 9.1699 35.8076 8.06805 35.8076 6.91344C35.8076 6.76531 35.7954 6.61516 35.767 6.46297C35.5682 5.34895 34.649 4.54539 33.5187 4.4764C32.0151 4.38508 30.7834 5.65941 30.9437 7.17724C30.964 7.36798 30.8828 7.55467 30.7326 7.6683L28.0582 9.68328C27.6442 9.99577 27.0903 10.0242 26.6296 9.7888C26.6256 9.78677 26.6195 9.78271 26.6154 9.78068C26.0675 9.50471 25.7043 8.96292 25.6069 8.35619L25.2457 6.09771C25.1382 5.43011 25.3614 4.73613 25.8768 4.29986C26.1589 4.06244 26.3922 3.74995 26.5505 3.36238C26.8224 2.69478 26.792 1.92977 26.4571 1.29058C25.7023 -0.150136 23.8659 -0.381463 22.7519 0.556019C22.6687 0.625011 22.5936 0.698062 22.5226 0.77517C21.7312 1.62946 20.5989 2.09008 19.4341 2.13066L18.8355 2.15096C17.6748 2.19154 16.5385 1.7857 15.6842 0.996351C15.5199 0.844163 15.3311 0.708207 15.114 0.598632C14.2232 0.142066 13.1721 0.288167 12.4213 0.94968C11.563 1.70656 11.3742 2.89567 11.8328 3.84532L4.3898 11.1179C3.99005 11.5075 3.44014 11.6759 2.88414 11.6374C2.30785 11.5968 1.71736 11.7957 1.275 12.238C0.412599 13.1004 0.469416 14.531 1.44342 15.3203C2.16784 15.9068 3.2291 15.9271 3.97584 15.369ZM12.5735 4.74425C13.4643 5.41388 14.7386 5.37938 15.5909 4.66308C15.668 4.59815 15.739 4.53119 15.8039 4.46219C16.6014 3.61602 17.7073 3.13105 18.87 3.09047L19.4727 3.07017C20.6354 3.02959 21.7941 3.41108 22.6423 4.20855C22.7174 4.27957 22.7985 4.34653 22.8858 4.40943C23.0136 4.50278 23.1496 4.58191 23.2896 4.64685C23.8821 4.91876 24.294 5.47678 24.3975 6.12003L24.7283 8.19183C24.8419 8.90001 24.5558 9.60617 23.9957 10.0587C23.4499 10.499 23.0968 11.1686 23.0806 11.8951C23.0806 11.9032 23.0806 11.9113 23.0806 11.9194C23.0644 13.3642 22.6118 14.7725 21.6967 15.8905C20.9479 16.8057 19.8603 17.3313 18.6915 17.5017C17.5206 17.6194 16.3457 17.3779 15.3981 16.6799L14.8786 16.2964C13.9493 15.6105 13.304 14.5919 13.1335 13.4494C13.1193 13.35 13.097 13.2506 13.0706 13.1511V13.1471C13.0077 12.9198 13.0828 12.6783 13.2634 12.5282L17.7459 8.79044C18.4317 9.2957 19.3997 9.24294 20.0246 8.6281C20.6963 7.96659 20.7186 6.85257 20.0713 6.16671C19.3875 5.44026 18.243 5.42605 17.543 6.12815C16.9971 6.674 16.8855 7.4877 17.2061 8.14516L12.8251 11.7977C12.6242 11.9641 12.3401 11.9722 12.1271 11.822C11.6989 11.5197 11.1754 11.3533 10.6316 11.3756C9.57232 11.4203 8.73022 12.1142 8.41772 13.0274C8.31829 13.3175 8.05247 13.5184 7.74403 13.5063L4.86868 13.3865C4.81795 13.3845 4.77534 13.346 4.76519 13.2972C4.62112 12.583 4.84839 11.8423 5.37192 11.333L12.3361 4.5393C12.4091 4.61032 12.4883 4.67932 12.5735 4.74222V4.74425Z" fill="url(#paint0_linear_65_52)"/>
<path d="M43.2482 26.9659C43.0594 26.075 42.2802 25.4054 41.3712 25.3425C41.3062 25.3385 41.2413 25.3364 41.1784 25.3385C40.176 25.3608 39.1979 25.03 38.4573 24.3543L38.0514 23.985C37.3148 23.3133 36.8887 22.3779 36.8217 21.3816C36.8177 21.3126 36.8096 21.2436 36.7974 21.1725C36.6472 20.2655 35.8924 19.5533 34.9792 19.4579C33.6075 19.3179 32.4996 20.4968 32.7066 21.8422C32.7735 22.2805 32.9846 22.6741 33.2849 22.9745C33.6968 23.3884 33.8774 23.9789 33.7475 24.5491L31.1238 36.1865C31.0589 36.4787 30.8357 36.7181 30.5414 36.779C29.9895 36.8926 29.4761 37.2315 29.1535 37.7936C28.7476 38.4977 28.8105 39.4027 29.3036 40.048C30.1153 41.1133 31.6392 41.1417 32.4976 40.2002C33.0556 39.5874 33.1773 38.7311 32.879 38.0127C32.7613 37.7286 32.8364 37.3999 33.0454 37.1747L39.624 30.0563C39.9974 29.6525 40.5331 29.4374 41.081 29.4719H41.0891C42.4588 29.5531 43.5343 28.3234 43.2461 26.9577L43.2482 26.9659ZM34.4577 25.2512C34.7094 24.1331 35.9837 23.5731 36.9658 24.1636C37.1626 24.2813 37.3473 24.4192 37.5218 24.5775L37.6456 24.6891C38.4796 25.448 39.062 26.4748 39.1614 27.5969C39.1654 27.6538 39.1736 27.7085 39.1837 27.7654C39.1837 27.7694 39.1837 27.7735 39.1837 27.7775C39.3217 28.5628 39.1208 29.3684 38.581 29.9528L32.1161 36.9494C32.0694 37.0002 31.9943 37.0103 31.9334 36.9778C31.9334 36.9778 31.9334 36.9778 31.9314 36.9778C31.8705 36.9454 31.836 36.8784 31.8523 36.8114L34.4598 25.2512H34.4577Z" fill="url(#paint1_linear_65_52)"/>
<path d="M26.3628 21.1644C27.507 21.1644 28.4346 20.2368 28.4346 19.0926C28.4346 17.9484 27.507 17.0208 26.3628 17.0208C25.2186 17.0208 24.291 17.9484 24.291 19.0926C24.291 20.2368 25.2186 21.1644 26.3628 21.1644Z" fill="url(#paint2_linear_65_52)"/>
<path d="M29.0503 33.2766C29.3486 31.6959 28.0864 30.2673 26.4712 30.381C25.3694 30.4581 24.442 31.3022 24.2553 32.3919C24.2452 32.4507 24.2371 32.5096 24.231 32.5664C24.1113 33.7453 23.5999 34.8472 22.7071 35.6244L22.2241 36.0444C21.5606 36.6207 20.7489 36.9515 19.8906 37.0732C19.6856 37.1016 19.5071 36.9312 19.5233 36.7242L20.2051 28.1935C20.6515 28.1205 21.0756 27.879 21.3698 27.4589C21.7919 26.8583 21.7879 26.0345 21.3597 25.4379C20.6515 24.4517 19.2108 24.4476 18.4945 25.4216C18.0603 26.0121 18.0481 26.8319 18.458 27.4386C18.6913 27.7836 19.014 28.0109 19.365 28.1265L18.6649 36.8825C18.6528 37.0265 18.5473 37.1463 18.4052 37.1726H18.3971C18.2469 37.2051 18.0947 37.1239 18.0359 36.9819L13.1476 25.2045C12.76 24.2711 12.7357 23.2281 13.0746 22.2764C13.0766 22.2683 13.0806 22.2602 13.0827 22.2541C13.3485 21.4789 13.1902 20.6003 12.5997 20.0321C11.7881 19.2509 10.4975 19.261 9.698 20.0605C9.22317 20.5354 9.02837 21.1807 9.11156 21.7975C9.16432 22.1973 9.01822 22.595 8.69558 22.8344L6.57914 24.407C5.93183 24.888 5.09784 25.0361 4.32675 24.8068L4.31661 24.8027C2.72167 24.334 1.11862 25.5434 1.18355 27.2621C1.21805 28.1793 2.00334 29.1878 2.87994 29.4617C2.94894 29.4841 3.01996 29.5023 3.08895 29.5186C4.26588 29.7803 5.32511 30.4175 6.013 31.4077L6.35593 31.9028C7.01948 32.8586 7.28124 34.0375 7.08441 35.184C7.0702 35.2652 7.06006 35.3484 7.05397 35.4316C6.97483 36.5416 7.68505 37.5886 8.74631 37.9214C9.77916 38.2461 10.8222 37.8585 11.4208 37.0813C11.5486 36.9149 11.7759 36.8642 11.9666 36.9494L16.5323 38.9624C16.5181 39.0172 16.5039 39.074 16.4958 39.1288C16.2157 40.6973 17.4718 42.1096 19.0769 41.998C20.1706 41.9229 21.0939 41.095 21.2907 40.0175C21.3069 39.9343 21.3171 39.8512 21.3232 39.77C21.4206 38.6052 21.9603 37.5217 22.8451 36.7546L23.3321 36.3326C24.2168 35.5635 25.3694 35.1942 26.5422 35.2551C26.6153 35.2591 26.6883 35.2591 26.7614 35.2551C27.8815 35.2145 28.8494 34.3845 29.0584 33.2827L29.0503 33.2766ZM11.8834 35.9876C11.8956 35.9125 11.9078 35.8374 11.9139 35.7603C11.995 34.6483 11.2767 33.5952 10.2134 33.2665C10.1221 33.238 10.0308 33.2157 9.93947 33.1975C8.79501 32.9783 7.78245 32.3188 7.11891 31.3611L6.75568 30.8355C6.09214 29.8798 5.82226 28.7008 6.02315 27.5563C6.03938 27.461 6.05156 27.3656 6.05764 27.2662C6.0617 27.2114 6.0617 27.1586 6.0617 27.1038C6.05358 26.3388 6.3742 25.6083 6.98701 25.1518L9.19679 23.5102C9.52146 23.2687 9.94961 23.2403 10.3169 23.4067C10.323 23.4087 10.3291 23.4128 10.3352 23.4148C11.2929 23.8389 12.0173 24.6627 12.4191 25.6306L17.3115 37.4202C17.3642 37.546 17.3318 37.6901 17.2323 37.7814C17.1593 37.8484 17.0923 37.9194 17.0274 37.9945C16.9341 38.104 16.7798 38.1426 16.6479 38.0837L11.8895 35.9876H11.8834Z" fill="url(#paint3_linear_65_52)"/>
<path d="M4.11944 18.7132C3.43154 19.4011 3.43154 20.5172 4.11944 21.205C4.80733 21.8929 5.92338 21.8929 6.61127 21.205C7.29916 20.5172 7.29916 19.4011 6.61127 18.7132C5.92338 18.0253 4.80733 18.0253 4.11944 18.7132Z" fill="url(#paint4_linear_65_52)"/>
<path d="M39.9046 19.608C39.2167 20.2959 39.2167 21.4119 39.9046 22.0998C40.5925 22.7877 41.7085 22.7877 42.3964 22.0998C43.0843 21.4119 43.0843 20.2959 42.3964 19.608C41.7085 18.9201 40.5925 18.9201 39.9046 19.608Z" fill="url(#paint5_linear_65_52)"/>
<path d="M57.1515 9.95721H53.0566V32.1788H57.1515V9.95721Z" fill="#161B24"/>
<path d="M61.8841 15.8602C60.1349 15.8602 58.7693 16.3492 57.7852 17.3192V21.0549C57.8805 20.9108 57.9881 20.7769 58.1078 20.6531C58.7429 19.9977 59.5891 19.671 60.6463 19.671C61.6 19.671 62.361 19.951 62.9332 20.5111C63.5034 21.0732 63.7895 21.8828 63.7895 22.94V32.1768H67.8844V22.4307C67.8844 20.3792 67.3182 18.77 66.1839 17.6053C65.0517 16.4426 63.6191 15.8582 61.8821 15.8582L61.8841 15.8602Z" fill="#161B24"/>
<path d="M229.372 18.1774C228.146 16.6353 226.419 15.8601 224.197 15.8601C221.975 15.8601 220.265 16.6697 218.753 18.289C217.239 19.9083 216.484 21.8929 216.484 24.2406C216.484 26.5884 217.239 28.5729 218.753 30.1922C220.267 31.8115 222.083 32.6211 224.197 32.6211C226.419 32.6211 228.144 31.848 229.372 30.3018V32.1747H233.467V16.3025H229.372V18.1734V18.1774ZM228.12 27.463C227.284 28.301 226.229 28.717 224.96 28.717C223.692 28.717 222.643 28.301 221.817 27.463C220.991 26.629 220.577 25.5535 220.577 24.2427C220.577 22.9318 220.991 21.8584 221.817 21.0203C222.643 20.1863 223.69 19.7683 224.96 19.7683C226.231 19.7683 227.284 20.1863 228.12 21.0203C228.954 21.8584 229.372 22.9318 229.372 24.2427C229.372 25.5535 228.954 26.629 228.12 27.463Z" fill="#161B24"/>
<path d="M109.841 9.00342H105.746V32.1787H109.841V9.00342Z" fill="#161B24"/>
<path d="M128.064 9.95728H123.971V32.1788H128.064V9.95728Z" fill="#161B24"/>
<path d="M132.798 15.86C131.049 15.86 129.683 16.345 128.699 17.317V21.0486C128.795 20.9066 128.902 20.7727 129.02 20.6509C129.657 19.9955 130.501 19.6688 131.56 19.6688C132.514 19.6688 133.275 19.9488 133.845 20.5089C134.417 21.071 134.702 21.8806 134.702 22.9378V32.1746H138.796V22.4285C138.796 20.377 138.23 18.7678 137.098 17.6031C135.966 16.4404 134.531 15.856 132.796 15.856L132.798 15.86Z" fill="#161B24"/>
<path d="M144.759 9.00342H140.664V32.1787H144.759V9.00342Z" fill="#161B24"/>
<path d="M177.745 16.3066H173.65V32.1789H177.745V16.3066Z" fill="#161B24"/>
<path d="M213.272 27.1301C212.594 27.1301 212.008 27.3838 211.51 27.8911C211.013 28.3984 210.764 28.9909 210.764 29.6686C210.764 30.3464 211.013 30.9328 211.51 31.43C212.008 31.9271 212.594 32.1767 213.272 32.1767C213.949 32.1767 214.568 31.9271 215.066 31.43C215.563 30.9328 215.812 30.3464 215.812 29.6686C215.812 28.9909 215.563 28.3984 215.066 27.8911C214.568 27.3838 213.97 27.1301 213.272 27.1301Z" fill="#161B24"/>
<path d="M239.577 16.3044H235.482V32.1787H239.577V16.3044Z" fill="#161B24"/>
<path d="M190.153 28.0047C189.508 28.374 188.772 28.5607 187.946 28.5607C186.72 28.5607 185.703 28.1528 184.898 27.3391C184.094 26.5234 183.693 25.4926 183.693 24.2426C183.693 22.9926 184.094 21.9293 184.898 21.1156C185.701 20.3019 186.718 19.894 187.946 19.894C188.749 19.894 189.476 20.0848 190.121 20.4663C190.766 20.8457 191.247 21.3652 191.566 22.0227L195.09 19.9569C194.433 18.709 193.471 17.7147 192.201 16.9741C190.933 16.2334 189.522 15.8621 187.978 15.8621C185.586 15.8621 183.591 16.6676 181.994 18.2748C180.397 19.8839 179.598 21.8745 179.598 24.2446C179.598 26.6147 180.395 28.6053 181.994 30.2145C183.591 31.8236 185.586 32.6272 187.978 32.6272C189.522 32.6272 190.933 32.2497 192.201 31.4989C193.471 30.7502 194.455 29.7477 195.153 28.4998L191.598 26.4666C191.28 27.122 190.799 27.6354 190.153 28.0067V28.0047Z" fill="#161B24"/>
<path d="M206.426 23.3053C205.622 22.9968 204.817 22.7432 204.013 22.5443C203.209 22.3434 202.526 22.1101 201.966 21.8442C201.406 21.5804 201.126 21.2375 201.126 20.8134C201.126 20.4116 201.3 20.0931 201.649 19.8597C201.996 19.6284 202.436 19.5107 202.964 19.5107C204.151 19.5107 204.997 20.0504 205.504 21.13L208.997 19.2246C208.382 18.1471 207.548 17.3151 206.489 16.7327C205.429 16.1504 204.257 15.8582 202.964 15.8582C201.251 15.8582 199.817 16.3086 198.662 17.2076C197.507 18.1065 196.933 19.3402 196.933 20.9068C196.933 21.9437 197.213 22.8061 197.773 23.494C198.333 24.1839 199.017 24.6851 199.821 25.0037C200.624 25.3223 201.43 25.5861 202.233 25.7971C203.037 26.0101 203.721 26.2476 204.281 26.5114C204.841 26.7751 205.123 27.1181 205.123 27.5422C205.123 28.4533 204.393 28.9058 202.931 28.9058C201.322 28.9058 200.287 28.2179 199.821 26.8441L196.266 28.8429C197.451 31.3611 199.671 32.6212 202.931 32.6212C204.752 32.6212 206.272 32.1789 207.487 31.3043C208.705 30.4256 209.313 29.1716 209.313 27.5422C209.313 26.4627 209.031 25.5617 208.471 24.8434C207.911 24.125 207.227 23.6096 206.424 23.3053H206.426Z" fill="#161B24"/>
<path d="M118.748 20.1396C120.578 20.1396 122.06 18.6562 122.06 16.8279V16.5398H118.748V20.1416V20.1396Z" fill="#161B24"/>
<path d="M168.188 20.1396C170.018 20.1396 171.499 18.6562 171.499 16.8279V16.5398H168.188V20.1416V20.1396Z" fill="#161B24"/>
<path d="M239.577 11.5908H235.482V15.6857H235.805C237.889 15.6857 239.579 13.8513 239.579 11.5908H239.577Z" fill="#161B24"/>
<path d="M177.745 11.5908H173.65V15.6857H173.973C176.057 15.6857 177.747 13.8513 177.747 11.5908H177.745Z" fill="#161B24"/>
<path d="M99.9556 18.356L99.7831 18.1632C99.6107 17.9684 99.424 17.7838 99.2312 17.6174C98.6245 17.0938 97.8818 16.688 97.0823 16.4465C96.2341 16.1888 95.2885 16.0894 94.2699 16.1584C91.8917 16.3228 89.69 17.5606 88.2351 19.5532L88.227 19.5695C88.089 19.7541 87.9652 19.9388 87.8455 20.1376L84.8991 24.9305C83.292 27.6557 81.6382 29.0396 78.2921 29.0396C77.6813 29.0396 76.6789 28.9869 75.9362 28.7495C74.5523 28.3051 73.6168 27.1525 73.2455 25.6489L73.2171 25.5251H81.3602C81.6362 25.5251 81.9081 25.4581 82.1516 25.3242C82.3971 25.1903 82.6061 24.9975 82.7542 24.7621L85.0107 21.2212C84.0935 18.6218 81.5794 15.8601 77.245 15.8601C72.6915 15.8601 68.9883 19.6202 68.9883 24.2406C68.9883 26.5762 69.8365 28.7008 71.3827 30.2206C73.1826 31.9941 75.5933 32.613 78.0547 32.6252C80.1407 32.6252 82.0785 32.2518 83.8581 31.1277C85.5221 30.0766 87.3544 27.8526 88.0971 26.4504L90.8426 21.9842C91.5994 20.7504 93.0036 19.8941 94.5986 19.6932C96.1002 19.5045 97.5186 19.9347 98.4885 20.8722C99.3367 21.694 99.8034 22.8912 99.8034 24.2427C99.8034 26.9678 98.0847 28.7982 95.5259 28.7982C93.2593 28.7982 91.5508 27.2012 91.289 24.8818L88.6957 28.9138C88.5374 29.1594 88.5496 29.4759 88.7282 29.7032C90.2074 31.5883 92.3949 32.6272 94.8847 32.6272C96.9078 32.6272 98.6022 31.8846 99.7852 30.4804L99.9597 30.2754V32.2295H103.973V16.2335H99.9597V18.3601L99.9556 18.356ZM73.1867 22.6254C73.6453 20.4197 75.2097 19.1048 77.3688 19.1048C79.5278 19.1048 80.9483 20.4197 81.3967 22.6254L81.4211 22.7431H73.1643L73.1887 22.6254H73.1867Z" fill="#161B24"/>
<path d="M119.734 28.4796C119.206 28.4471 118.802 28.3051 118.528 28.0514C118.252 27.7998 118.114 27.396 118.114 26.8461V11.8606H114.02V16.3065H111.258V20.2431H114.02V26.8461C114.02 29.0254 114.596 30.5392 115.748 31.3854C116.903 32.2316 119.243 32.4974 122.059 32.1788V28.4654C121.274 28.508 120.263 28.5121 119.734 28.4796Z" fill="#161B24"/>
<path d="M169.174 28.4796C168.646 28.4471 168.243 28.3051 167.969 28.0514C167.693 27.7998 167.555 27.396 167.555 26.8461V11.8606H163.46V16.3065H162.537H158.158L154.645 26.9739L150.506 16.3065H146.031L152.539 31.6715C152.157 32.749 151.644 33.5323 150.999 34.0213C150.353 34.5063 149.479 34.7396 148.381 34.7193V38.5281C150.41 38.6336 152.105 38.173 153.47 37.1462C154.832 36.1174 155.928 34.4697 156.753 32.2031L161.108 20.2411H163.464V26.8441C163.464 29.0234 164.04 30.5372 165.193 31.3834C166.347 32.2295 168.687 32.4953 171.504 32.1768V28.4634C170.718 28.506 169.706 28.51 169.178 28.4776L169.174 28.4796Z" fill="#161B24"/>
</g>
<defs>
<linearGradient id="paint0_linear_65_52" x1="3.06677" y1="40.0459" x2="29.1296" y2="3.95287" gradientUnits="userSpaceOnUse">
<stop offset="0.1" stop-color="#0050FF"/>
<stop offset="0.9" stop-color="#3CF096"/>
</linearGradient>
<linearGradient id="paint1_linear_65_52" x1="18.6261" y1="51.2815" x2="44.6889" y2="15.1865" gradientUnits="userSpaceOnUse">
<stop offset="0.1" stop-color="#0050FF"/>
<stop offset="0.9" stop-color="#3CF096"/>
</linearGradient>
<linearGradient id="paint2_linear_65_52" x1="8.43296" y1="43.9216" x2="34.4958" y2="7.82859" gradientUnits="userSpaceOnUse">
<stop offset="0.1" stop-color="#0050FF"/>
<stop offset="0.9" stop-color="#3CF096"/>
</linearGradient>
<linearGradient id="paint3_linear_65_52" x1="6.21998" y1="42.3227" x2="32.2828" y2="6.22964" gradientUnits="userSpaceOnUse">
<stop offset="0.1" stop-color="#0050FF"/>
<stop offset="0.9" stop-color="#3CF096"/>
</linearGradient>
<linearGradient id="paint4_linear_65_52" x1="-4.9571" y1="34.2527" x2="21.1077" y2="-1.84037" gradientUnits="userSpaceOnUse">
<stop offset="0.1" stop-color="#0050FF"/>
<stop offset="0.9" stop-color="#3CF096"/>
</linearGradient>
<linearGradient id="paint5_linear_65_52" x1="18.9898" y1="51.5453" x2="45.0526" y2="15.4502" gradientUnits="userSpaceOnUse">
<stop offset="0.1" stop-color="#0050FF"/>
<stop offset="0.9" stop-color="#3CF096"/>
</linearGradient>
<clipPath id="clip0_65_52">
<rect width="238.91" height="42" fill="white" transform="translate(0.667969)"/>
</clipPath>
</defs>
</svg>
