<svg width="25" height="24" viewBox="0 0 25 24" fill="none" xmlns="http://www.w3.org/2000/svg">
<path d="M2.38196 8.7833C2.59758 8.62216 2.73785 8.40886 2.8074 8.17817C2.81552 8.15034 2.84102 8.1318 2.87 8.13295L4.8848 8.21642C4.88712 8.22917 4.88944 8.24077 4.89175 8.25352C5.05289 8.86908 5.636 9.30613 6.27243 9.28758C6.32808 9.28642 6.38372 9.28062 6.43821 9.27367C7.09551 9.17861 7.7644 9.3525 8.29882 9.74664L8.59211 9.96343C9.12421 10.3564 9.45112 10.9442 9.58792 11.5899C9.59835 11.6571 9.6111 11.7255 9.63197 11.7927C9.72703 12.1081 9.93453 12.3712 10.2 12.5463C10.207 12.5509 10.2139 12.5555 10.2209 12.559C10.2545 12.581 10.2893 12.6007 10.3252 12.6193C10.3322 12.6228 10.3403 12.6274 10.3472 12.6309C10.4342 12.6749 10.5269 12.7086 10.622 12.7341C10.6243 12.7341 10.6278 12.7352 10.6301 12.7364C10.7553 12.7677 10.8863 12.7827 11.0196 12.7769C11.0219 12.7769 11.0231 12.7769 11.0254 12.7769C11.0254 12.7769 11.0254 12.7769 11.0266 12.7769C11.0347 12.7769 11.0416 12.7769 11.0497 12.7769C11.0613 12.7769 11.0718 12.7746 11.0834 12.7735C11.0938 12.7735 11.1031 12.7712 11.1135 12.77C11.1344 12.7677 11.1552 12.7665 11.1749 12.763C11.8195 12.6494 12.4826 12.7456 13.0228 13.1143L13.3926 13.3659C13.9502 13.7461 14.3177 14.335 14.4603 14.9946C14.4684 15.0306 14.4777 15.0665 14.4881 15.1024C14.669 15.7099 15.2567 16.1249 15.8897 16.0913C16.8147 16.0414 17.4315 15.1372 17.1428 14.2573C16.9457 13.6557 16.3464 13.2592 15.7146 13.3102C15.674 13.3137 15.6346 13.3183 15.5952 13.3253C14.9309 13.4354 14.2505 13.3044 13.694 12.9253L13.3903 12.7178C13.3149 12.6668 13.2431 12.6112 13.1758 12.5521C12.3435 11.8298 12.165 10.5778 12.7573 9.64811C12.8072 9.57044 12.8617 9.49393 12.9219 9.42089L13.1642 9.12528C13.5885 8.60709 14.2064 8.30337 14.8707 8.21758C14.9101 8.21294 14.9507 8.20599 14.9912 8.19671C15.4909 8.0889 15.987 7.57419 16.067 7.06875C16.089 6.93196 16.0902 6.79981 16.0751 6.67345C16.0427 6.40218 16.1516 6.13323 16.3696 5.96978L17.8013 4.89166C17.9172 4.80356 18.0807 4.81863 18.1815 4.92296C18.3971 5.14438 18.6846 5.29625 19.0023 5.3345C19.0579 5.34146 19.1136 5.34494 19.168 5.34494C19.8323 5.34841 20.4664 5.62084 20.9371 6.09034L21.1956 6.34885C21.1956 6.34885 21.2049 6.35813 21.2095 6.36277C21.8738 7.03861 21.4263 8.18744 20.4826 8.26511L19.379 8.35553C19.3118 8.15498 19.1831 7.97182 18.9849 7.8385C18.6383 7.60549 18.1699 7.61361 17.8337 7.86169C17.2784 8.27091 17.2819 9.09282 17.8442 9.4974C18.185 9.74201 18.6556 9.74433 18.9988 9.5032C19.2388 9.33511 19.3767 9.09166 19.4173 8.83547L21.3729 8.67433C21.7219 8.64535 22.065 8.77866 22.2992 9.03834C22.6539 9.43133 23.2254 9.62492 23.8051 9.41278C24.19 9.27135 24.4983 8.96299 24.6386 8.57811C24.9609 7.69476 24.3383 6.82647 23.5071 6.72561C23.4527 6.71866 23.3982 6.71518 23.3449 6.71518C22.6783 6.70938 22.043 6.44044 21.5712 5.96978L21.3104 5.70894C20.8432 5.24176 20.5673 4.61228 20.5673 3.95266C20.5673 3.86804 20.5603 3.78225 20.5441 3.69531C20.4305 3.05888 19.9053 2.59981 19.2596 2.56039C18.4006 2.50823 17.6969 3.23624 17.7885 4.10337C17.8001 4.21234 17.7537 4.31899 17.668 4.38391L16.1401 5.53505C15.9036 5.71358 15.5871 5.72981 15.3239 5.59534C15.3216 5.59418 15.3181 5.59186 15.3158 5.5907C15.0028 5.43304 14.7953 5.12352 14.7397 4.7769L14.5333 3.48664C14.4719 3.10525 14.5994 2.70878 14.8938 2.45954C15.055 2.3239 15.1883 2.14538 15.2787 1.92396C15.4341 1.54256 15.4167 1.10552 15.2254 0.740356C14.7942 -0.0827188 13.745 -0.214874 13.1086 0.320704C13.0611 0.360118 13.0182 0.401852 12.9776 0.445904C12.5255 0.933952 11.8786 1.1971 11.2132 1.22029L10.8712 1.23188C10.2081 1.25507 9.55893 1.02321 9.07089 0.572263C8.97698 0.485318 8.86917 0.407648 8.74513 0.345048C8.23622 0.0842146 7.63572 0.167681 7.2068 0.5456C6.71643 0.978004 6.60862 1.65733 6.87061 2.19986L2.61845 6.35465C2.39007 6.57723 2.07591 6.67345 1.75827 6.65142C1.42904 6.62824 1.0917 6.74184 0.838982 6.99456C0.346296 7.48725 0.378755 8.30453 0.9352 8.75548C1.34906 9.0905 1.95535 9.1021 2.38196 8.7833ZM7.29374 2.71342C7.80266 3.09597 8.53067 3.07626 9.01756 2.66705C9.06161 2.62995 9.10219 2.59169 9.13928 2.55228C9.59487 2.06887 10.2267 1.7918 10.8909 1.76862L11.2352 1.75703C11.8995 1.73384 12.5614 1.95178 13.046 2.40737C13.0889 2.44795 13.1353 2.4862 13.1851 2.52214C13.2581 2.57546 13.3358 2.62067 13.4158 2.65777C13.7543 2.81311 13.9896 3.13191 14.0487 3.49939L14.2377 4.683C14.3026 5.08758 14.1392 5.491 13.8192 5.74952C13.5074 6.00108 13.3057 6.38363 13.2964 6.79865C13.2964 6.80328 13.2964 6.80792 13.2964 6.81256C13.2871 7.63795 13.0286 8.44248 12.5058 9.08123C12.078 9.60406 11.4566 9.9043 10.7889 10.0017C10.12 10.0689 9.4488 9.93097 8.90743 9.53218L8.61066 9.31308C8.07972 8.92125 7.71107 8.3393 7.6137 7.68664C7.60558 7.62984 7.59283 7.57303 7.57776 7.51623V7.51391C7.54182 7.38407 7.58471 7.24612 7.68789 7.16034L10.2487 5.02498C10.6405 5.31364 11.1935 5.28349 11.5505 4.93224C11.9343 4.55432 11.947 3.91789 11.5772 3.52606C11.1865 3.11104 10.5327 3.10293 10.1328 3.50403C9.82093 3.81587 9.75717 4.28074 9.94033 4.65633L7.43749 6.743C7.32272 6.83806 7.16043 6.8427 7.0387 6.75691C6.7941 6.58418 6.49501 6.48912 6.18433 6.50188C5.5792 6.52738 5.0981 6.92385 4.91958 7.44551C4.86277 7.61129 4.71091 7.72605 4.5347 7.7191L2.89203 7.6507C2.86305 7.64954 2.8387 7.62752 2.83291 7.5997C2.7506 7.19164 2.88044 6.76851 3.17953 6.47753L7.15811 2.59633C7.19984 2.6369 7.24505 2.67632 7.29374 2.71226V2.71342Z" fill="url(#paint0_linear_65_479)"/>
<path d="M24.8184 15.4085C24.7106 14.8996 24.2654 14.5171 23.7461 14.4811C23.709 14.4788 23.6719 14.4776 23.6359 14.4788C23.0633 14.4916 22.5045 14.3026 22.0814 13.9166L21.8495 13.7056C21.4287 13.3219 21.1853 12.7874 21.147 12.2182C21.1447 12.1788 21.14 12.1394 21.1331 12.0988C21.0473 11.5806 20.6161 11.1737 20.0944 11.1193C19.3107 11.0393 18.6778 11.7128 18.796 12.4814C18.8343 12.7318 18.9548 12.9567 19.1264 13.1283C19.3617 13.3647 19.4649 13.7021 19.3907 14.0278L17.8918 20.6762C17.8547 20.8431 17.7272 20.9799 17.5591 21.0147C17.2438 21.0796 16.9505 21.2732 16.7662 21.5943C16.5343 21.9966 16.5702 22.5136 16.8519 22.8823C17.3156 23.4909 18.1863 23.5071 18.6766 22.9692C18.9954 22.6191 19.065 22.1299 18.8946 21.7195C18.8273 21.5572 18.8702 21.3694 18.9896 21.2408L22.7479 17.1741C22.9612 16.9434 23.2673 16.8205 23.5803 16.8402H23.5849C24.3674 16.8866 24.9818 16.1841 24.8172 15.4039L24.8184 15.4085ZM19.7965 14.429C19.9402 13.7902 20.6682 13.4702 21.2293 13.8076C21.3418 13.8748 21.4472 13.9537 21.5469 14.0441L21.6177 14.1078C22.0941 14.5414 22.4268 15.128 22.4836 15.7691C22.4859 15.8015 22.4906 15.8328 22.4964 15.8653C22.4964 15.8676 22.4964 15.8699 22.4964 15.8722C22.5752 16.3209 22.4604 16.7811 22.1521 17.115L18.4587 21.1121C18.432 21.1411 18.3891 21.1469 18.3543 21.1283C18.3543 21.1283 18.3543 21.1283 18.3532 21.1283C18.3184 21.1098 18.2987 21.0715 18.308 21.0333L19.7976 14.429H19.7965Z" fill="url(#paint1_linear_65_479)"/>
<path d="M15.1724 12.0943C15.8261 12.0943 16.356 11.5643 16.356 10.9107C16.356 10.257 15.8261 9.72705 15.1724 9.72705C14.5187 9.72705 13.9888 10.257 13.9888 10.9107C13.9888 11.5643 14.5187 12.0943 15.1724 12.0943Z" fill="url(#paint2_linear_65_479)"/>
<path d="M16.7068 19.0138C16.8773 18.1107 16.1562 17.2946 15.2334 17.3595C14.604 17.4036 14.0742 17.8858 13.9675 18.5083C13.9617 18.542 13.9571 18.5756 13.9536 18.608C13.8852 19.2816 13.5931 19.911 13.083 20.355L12.8071 20.595C12.428 20.9242 11.9643 21.1132 11.474 21.1827C11.3569 21.199 11.2548 21.1016 11.2641 20.9834L11.6536 16.1098C11.9087 16.0681 12.151 15.9301 12.319 15.6902C12.5602 15.347 12.5579 14.8764 12.3133 14.5356C11.9087 13.9722 11.0856 13.9698 10.6764 14.5263C10.4283 14.8636 10.4213 15.332 10.6555 15.6786C10.7888 15.8757 10.9731 16.0055 11.1737 16.0716L10.7738 21.0738C10.7668 21.1561 10.7065 21.2245 10.6254 21.2396H10.6207C10.535 21.2581 10.448 21.2117 10.4144 21.1306L7.62173 14.4022C7.40031 13.869 7.3864 13.2731 7.58 12.7294C7.58116 12.7248 7.58347 12.7202 7.58463 12.7167C7.7365 12.2738 7.64607 11.7719 7.30873 11.4473C6.84503 11.001 6.10774 11.0068 5.65099 11.4635C5.37972 11.7348 5.26843 12.1034 5.31596 12.4558C5.3461 12.6842 5.26264 12.9114 5.07831 13.0482L3.86921 13.9466C3.4994 14.2214 3.02295 14.306 2.58243 14.175L2.57663 14.1727C1.66545 13.9049 0.749638 14.5958 0.786735 15.5777C0.806442 16.1017 1.25508 16.6779 1.75588 16.8344C1.79529 16.8471 1.83586 16.8575 1.87528 16.8668C2.54765 17.0164 3.15278 17.3804 3.54577 17.9461L3.74169 18.229C4.12077 18.775 4.27031 19.4485 4.15786 20.1035C4.14975 20.1498 4.14395 20.1974 4.14047 20.2449C4.09526 20.879 4.501 21.4772 5.1073 21.6673C5.69736 21.8528 6.29322 21.6314 6.6352 21.1874C6.70823 21.0923 6.83807 21.0633 6.94704 21.112L9.55538 22.262C9.54726 22.2933 9.53915 22.3258 9.53451 22.3571C9.37453 23.2532 10.0921 24.06 11.0091 23.9963C11.6339 23.9534 12.1614 23.4804 12.2738 22.8648C12.2831 22.8173 12.2889 22.7698 12.2924 22.7234C12.348 22.058 12.6564 21.4389 13.1618 21.0007L13.4401 20.7596C13.9455 20.3203 14.604 20.1093 15.274 20.144C15.3157 20.1464 15.3575 20.1464 15.3992 20.144C16.0391 20.1209 16.5921 19.6467 16.7115 19.0172L16.7068 19.0138ZM6.89951 20.5625C6.90647 20.5197 6.91342 20.4768 6.9169 20.4327C6.96327 19.7974 6.55289 19.1958 5.94544 19.008C5.89327 18.9917 5.84111 18.979 5.78894 18.9686C5.13512 18.8434 4.55665 18.4666 4.17757 17.9194L3.97006 17.6192C3.59098 17.0732 3.4368 16.3996 3.55157 15.7458C3.56084 15.6913 3.5678 15.6368 3.57128 15.58C3.57359 15.5487 3.5736 15.5186 3.5736 15.4873C3.56896 15.0503 3.75212 14.6329 4.10222 14.3721L5.36465 13.4343C5.55013 13.2963 5.79474 13.2801 6.00456 13.3751C6.00804 13.3763 6.01152 13.3786 6.015 13.3798C6.56217 13.6221 6.97602 14.0927 7.20556 14.6457L10.0005 21.381C10.0307 21.4529 10.0121 21.5352 9.95532 21.5873C9.91359 21.6256 9.87533 21.6662 9.83823 21.7091C9.78491 21.7717 9.69681 21.7937 9.62145 21.7601L6.90299 20.5625H6.89951Z" fill="url(#paint3_linear_65_479)"/>
<path d="M2.46369 10.6937C2.0707 11.0867 2.0707 11.7242 2.46369 12.1172C2.85668 12.5102 3.49427 12.5102 3.88726 12.1172C4.28025 11.7242 4.28025 11.0867 3.88726 10.6937C3.49427 10.3007 2.85668 10.3007 2.46369 10.6937Z" fill="url(#paint4_linear_65_479)"/>
<path d="M22.9075 11.2049C22.5145 11.5979 22.5145 12.2355 22.9075 12.6285C23.3005 13.0215 23.9381 13.0215 24.3311 12.6285C24.7241 12.2355 24.7241 11.5979 24.3311 11.2049C23.9381 10.8119 23.3005 10.8119 22.9075 11.2049Z" fill="url(#paint5_linear_65_479)"/>
<defs>
<linearGradient id="paint0_linear_65_479" x1="1.86261" y1="22.8811" x2="16.7521" y2="2.2613" gradientUnits="userSpaceOnUse">
<stop offset="0.1" stop-color="#0050FF"/>
<stop offset="0.9" stop-color="#3CF096"/>
</linearGradient>
<linearGradient id="paint1_linear_65_479" x1="10.7519" y1="29.2999" x2="25.6415" y2="8.67902" gradientUnits="userSpaceOnUse">
<stop offset="0.1" stop-color="#0050FF"/>
<stop offset="0.9" stop-color="#3CF096"/>
</linearGradient>
<linearGradient id="paint2_linear_65_479" x1="4.92916" y1="25.0954" x2="19.8187" y2="4.47561" gradientUnits="userSpaceOnUse">
<stop offset="0.1" stop-color="#0050FF"/>
<stop offset="0.9" stop-color="#3CF096"/>
</linearGradient>
<linearGradient id="paint3_linear_65_479" x1="3.66402" y1="24.1818" x2="18.5535" y2="3.562" gradientUnits="userSpaceOnUse">
<stop offset="0.1" stop-color="#0050FF"/>
<stop offset="0.9" stop-color="#3CF096"/>
</linearGradient>
<linearGradient id="paint4_linear_65_479" x1="-2.72168" y1="19.5713" x2="12.169" y2="-1.04847" gradientUnits="userSpaceOnUse">
<stop offset="0.1" stop-color="#0050FF"/>
<stop offset="0.9" stop-color="#3CF096"/>
</linearGradient>
<linearGradient id="paint5_linear_65_479" x1="10.959" y1="29.4505" x2="25.8486" y2="8.82958" gradientUnits="userSpaceOnUse">
<stop offset="0.1" stop-color="#0050FF"/>
<stop offset="0.9" stop-color="#3CF096"/>
</linearGradient>
</defs>
</svg>
