<svg width="681" height="448" viewBox="0 0 681 448" fill="none" xmlns="http://www.w3.org/2000/svg">
<g filter="url(#filter0_d_65_1100)">
<rect x="117.395" y="49" width="514.452" height="350" rx="11.4323" fill="white"/>
<path d="M117.395 60.4323C117.395 54.1184 122.513 49 128.827 49H251.152V399H128.827C122.513 399 117.395 393.882 117.395 387.568V60.4323Z" fill="#E6E7EB"/>
<rect x="87.668" y="106.159" width="147.476" height="45.7291" rx="5.71613" fill="white"/>
<path d="M124.575 142.737C132.001 142.564 137.967 136.49 137.967 129.022C137.967 121.446 131.825 115.304 124.248 115.304C116.781 115.304 110.707 121.27 110.533 128.695L110.529 142.741L124.575 142.737Z" fill="#FFCC63"/>
<path d="M128.648 128.392C128.648 130.823 126.677 132.794 124.247 132.794M124.247 132.794C121.816 132.794 119.845 130.823 119.845 128.392M124.247 132.794V135.309M124.247 135.309H121.732M124.247 135.309H126.762M124.247 130.279C123.205 130.279 122.36 129.434 122.36 128.392V124.62C122.36 123.578 123.205 122.733 124.247 122.733C125.288 122.733 126.133 123.578 126.133 124.62V128.392C126.133 129.434 125.288 130.279 124.247 130.279Z" stroke="#111827" stroke-width="1.0289" stroke-linecap="round" stroke-linejoin="round"/>
<rect x="143.689" y="121.019" width="34.2968" height="3.42968" rx="1.71484" fill="#D4D4D4"/>
<rect x="143.689" y="127.879" width="68.5936" height="3.42968" rx="1.71484" fill="#D4D4D4"/>
<rect x="143.689" y="134.738" width="68.5936" height="3.42968" rx="1.71484" fill="#D4D4D4"/>
<path d="M147.45 196.47C154.876 196.296 160.842 190.222 160.842 182.755C160.842 175.178 154.7 169.036 147.123 169.036C139.656 169.036 133.582 175.002 133.408 182.428L133.404 196.474L147.45 196.47Z" fill="#6FA1F7"/>
<path d="M145.235 187.155V178.981L152.78 177.095V185.269M145.235 187.155C145.235 187.849 144.391 188.413 143.349 188.413C142.307 188.413 141.462 187.849 141.462 187.155C141.462 186.46 142.307 185.897 143.349 185.897C144.391 185.897 145.235 186.46 145.235 187.155ZM152.78 185.269C152.78 185.963 151.936 186.526 150.894 186.526C149.852 186.526 149.008 185.963 149.008 185.269C149.008 184.574 149.852 184.011 150.894 184.011C151.936 184.011 152.78 184.574 152.78 185.269ZM145.235 181.496L152.78 179.61" stroke="#111827" stroke-width="1.0289" stroke-linecap="round" stroke-linejoin="round"/>
<rect x="166.561" y="174.751" width="34.2968" height="3.42968" rx="1.71484" fill="#D4D4D4"/>
<rect x="166.561" y="181.611" width="68.5936" height="3.42968" rx="1.71484" fill="#D4D4D4"/>
<rect x="166.561" y="188.47" width="68.5936" height="3.42968" rx="1.71484" fill="#D4D4D4"/>
<path d="M147.45 241.06C154.876 240.886 160.842 234.812 160.842 227.345C160.842 219.768 154.7 213.626 147.123 213.626C139.656 213.626 133.582 219.592 133.408 227.018L133.404 241.064L147.45 241.06Z" fill="#54F9C2"/>
<path d="M141.462 222.942C141.462 222.248 142.025 221.685 142.72 221.685H144.782C145.052 221.685 145.293 221.858 145.378 222.115L146.32 224.94C146.419 225.237 146.285 225.561 146.005 225.701L144.586 226.411C145.279 227.948 146.517 229.186 148.054 229.879L148.764 228.46C148.904 228.18 149.228 228.046 149.525 228.145L152.35 229.087C152.607 229.172 152.78 229.413 152.78 229.683V231.745C152.78 232.44 152.217 233.003 151.523 233.003H150.894C145.685 233.003 141.462 228.78 141.462 223.571V222.942Z" stroke="#111827" stroke-width="1.0289" stroke-linecap="round" stroke-linejoin="round"/>
<rect x="166.561" y="219.34" width="34.2968" height="3.42968" rx="1.71484" fill="#D4D4D4"/>
<rect x="166.561" y="226.2" width="68.5936" height="3.42968" rx="1.71484" fill="#D4D4D4"/>
<rect x="166.561" y="233.059" width="68.5936" height="3.42968" rx="1.71484" fill="#D4D4D4"/>
<path d="M147.45 285.645C154.876 285.471 160.842 279.397 160.842 271.93C160.842 264.353 154.7 258.211 147.123 258.211C139.656 258.211 133.582 264.177 133.408 271.602L133.404 285.648L147.45 285.645Z" fill="#988FFD"/>
<path d="M143.12 275.93C140.91 273.72 140.91 270.137 143.12 267.927M151.123 267.927C153.333 270.137 153.333 273.72 151.123 275.93M144.898 274.152C143.671 272.924 143.671 270.933 144.898 269.705M149.344 269.705C150.572 270.933 150.572 272.924 149.344 274.152M147.75 271.928C147.75 272.276 147.469 272.557 147.121 272.557C146.774 272.557 146.493 272.276 146.493 271.928C146.493 271.581 146.774 271.3 147.121 271.3C147.469 271.3 147.75 271.581 147.75 271.928Z" stroke="#111827" stroke-width="1.0289" stroke-linecap="round" stroke-linejoin="round"/>
<rect x="166.561" y="263.926" width="34.2968" height="3.42968" rx="1.71484" fill="#D4D4D4"/>
<rect x="166.561" y="270.785" width="68.5936" height="3.42968" rx="1.71484" fill="#D4D4D4"/>
<rect x="166.561" y="277.644" width="68.5936" height="3.42968" rx="1.71484" fill="#D4D4D4"/>
<path d="M146.292 330.23C153.717 330.056 159.684 323.982 159.684 316.515C159.684 308.938 153.541 302.796 145.965 302.796C138.498 302.796 132.424 308.762 132.25 316.188L132.246 330.233L146.292 330.23Z" fill="#FD679D"/>
<path d="M147.851 315.256L150.714 313.825C151.132 313.616 151.624 313.92 151.624 314.387V318.64C151.624 319.107 151.132 319.411 150.714 319.202L147.851 317.771M141.564 320.286H146.594C147.288 320.286 147.851 319.723 147.851 319.029V313.998C147.851 313.304 147.288 312.741 146.594 312.741H141.564C140.869 312.741 140.306 313.304 140.306 313.998V319.029C140.306 319.723 140.869 320.286 141.564 320.286Z" stroke="#111827" stroke-width="1.0289" stroke-linecap="round" stroke-linejoin="round"/>
<rect x="165.408" y="308.512" width="34.2968" height="3.42968" rx="1.71484" fill="#D4D4D4"/>
<rect x="165.408" y="315.371" width="68.5936" height="3.42968" rx="1.71484" fill="#D4D4D4"/>
<rect x="165.408" y="322.23" width="68.5936" height="3.42968" rx="1.71484" fill="#D4D4D4"/>
<path d="M117.387 60.4323C117.387 54.1184 122.505 49 128.819 49H620.406C626.72 49 631.839 54.1184 631.839 60.4323V83.2968H117.387V60.4323Z" fill="#12141D"/>
<circle cx="158.055" cy="65.6625" r="5.73608" fill="#ED6B60" stroke="#D05147" stroke-width="1.27468"/>
<circle cx="178.451" cy="65.6626" r="5.73608" fill="#F5C250" stroke="#D6A343" stroke-width="1.27468"/>
<circle cx="198.845" cy="65.6625" r="5.73608" fill="#62C656" stroke="#52A842" stroke-width="1.27468"/>
<rect x="412.334" y="258.21" width="57.1613" height="5.71613" rx="2.85807" fill="#9CA2AE"/>
<rect x="366.609" y="269.641" width="148.619" height="5.71613" rx="2.85807" fill="#D9D9D9"/>
<rect x="383.76" y="281.074" width="114.323" height="5.71613" rx="2.85807" fill="#D9D9D9"/>
<path d="M365.086 338.7C365.086 328.759 373.145 320.7 383.086 320.7H495.707C505.648 320.7 513.707 328.759 513.707 338.7C513.707 348.641 505.648 356.7 495.707 356.7H383.086C373.145 356.7 365.086 348.641 365.086 338.7Z" fill="url(#paint0_linear_65_1100)"/>
<path d="M391.301 337.006C391.268 336.701 391.13 336.463 390.888 336.293C390.648 336.122 390.335 336.037 389.951 336.037C389.68 336.037 389.448 336.078 389.255 336.16C389.061 336.241 388.913 336.352 388.81 336.492C388.708 336.632 388.655 336.792 388.653 336.971C388.653 337.12 388.687 337.25 388.754 337.359C388.824 337.469 388.919 337.562 389.038 337.639C389.157 337.714 389.288 337.777 389.433 337.828C389.577 337.879 389.723 337.923 389.87 337.958L390.542 338.125C390.812 338.188 391.072 338.274 391.322 338.381C391.573 338.488 391.798 338.623 391.997 338.787C392.197 338.95 392.356 339.147 392.472 339.378C392.589 339.608 392.647 339.879 392.647 340.189C392.647 340.609 392.54 340.978 392.325 341.298C392.111 341.615 391.801 341.863 391.395 342.043C390.992 342.22 390.503 342.309 389.93 342.309C389.372 342.309 388.888 342.222 388.478 342.05C388.07 341.877 387.751 341.625 387.52 341.294C387.291 340.963 387.168 340.56 387.149 340.084H388.426C388.444 340.334 388.521 340.541 388.656 340.707C388.792 340.872 388.968 340.996 389.185 341.077C389.404 341.159 389.649 341.2 389.919 341.2C390.201 341.2 390.448 341.158 390.661 341.074C390.875 340.988 391.043 340.869 391.164 340.717C391.286 340.563 391.347 340.384 391.35 340.179C391.347 339.992 391.292 339.838 391.185 339.717C391.078 339.593 390.928 339.491 390.734 339.409C390.543 339.325 390.319 339.251 390.062 339.185L389.248 338.975C388.658 338.824 388.191 338.594 387.848 338.286C387.508 337.976 387.338 337.565 387.338 337.052C387.338 336.63 387.452 336.26 387.681 335.943C387.911 335.626 388.225 335.38 388.621 335.205C389.018 335.028 389.467 334.939 389.968 334.939C390.476 334.939 390.922 335.028 391.304 335.205C391.689 335.38 391.991 335.623 392.21 335.936C392.429 336.246 392.542 336.603 392.549 337.006H391.301ZM396.431 336.828V337.807H393.342V336.828H396.431ZM394.105 335.541H395.371V340.584C395.371 340.755 395.397 340.885 395.448 340.976C395.502 341.065 395.572 341.125 395.658 341.158C395.744 341.191 395.84 341.207 395.945 341.207C396.024 341.207 396.096 341.201 396.161 341.189C396.229 341.178 396.28 341.167 396.315 341.158L396.529 342.148C396.461 342.171 396.364 342.197 396.238 342.225C396.115 342.253 395.963 342.269 395.784 342.274C395.467 342.283 395.181 342.235 394.927 342.13C394.673 342.023 394.471 341.857 394.322 341.634C394.175 341.41 394.103 341.13 394.105 340.794V335.541ZM399.036 342.309C398.695 342.309 398.389 342.248 398.116 342.127C397.845 342.003 397.631 341.821 397.472 341.581C397.316 341.341 397.238 341.045 397.238 340.693C397.238 340.39 397.294 340.139 397.406 339.941C397.518 339.743 397.67 339.584 397.864 339.465C398.058 339.346 398.276 339.256 398.518 339.196C398.763 339.133 399.016 339.087 399.277 339.059C399.592 339.027 399.847 338.998 400.043 338.972C400.239 338.944 400.381 338.902 400.47 338.846C400.561 338.788 400.606 338.698 400.606 338.577V338.556C400.606 338.292 400.528 338.088 400.372 337.944C400.216 337.799 399.991 337.727 399.697 337.727C399.387 337.727 399.141 337.794 398.959 337.93C398.779 338.065 398.658 338.225 398.595 338.409L397.413 338.241C397.506 337.914 397.66 337.642 397.874 337.422C398.089 337.201 398.351 337.035 398.661 336.926C398.972 336.814 399.314 336.758 399.69 336.758C399.949 336.758 400.206 336.788 400.463 336.849C400.719 336.909 400.954 337.01 401.166 337.15C401.378 337.287 401.548 337.475 401.676 337.713C401.807 337.951 401.872 338.248 401.872 338.605V342.2H400.655V341.462H400.613C400.536 341.611 400.428 341.751 400.288 341.882C400.15 342.01 399.977 342.114 399.767 342.193C399.559 342.27 399.315 342.309 399.036 342.309ZM399.364 341.378C399.619 341.378 399.839 341.328 400.026 341.228C400.212 341.125 400.355 340.99 400.456 340.822C400.558 340.654 400.61 340.471 400.61 340.273V339.64C400.57 339.673 400.502 339.703 400.407 339.731C400.313 339.759 400.209 339.783 400.092 339.804C399.975 339.825 399.86 339.844 399.746 339.86C399.631 339.877 399.532 339.891 399.448 339.902C399.26 339.928 399.09 339.97 398.941 340.028C398.792 340.086 398.674 340.168 398.588 340.273C398.502 340.376 398.459 340.509 398.459 340.672C398.459 340.905 398.544 341.081 398.714 341.2C398.884 341.319 399.101 341.378 399.364 341.378ZM403.145 342.2V336.828H404.373V337.723H404.429C404.527 337.413 404.695 337.174 404.933 337.006C405.173 336.836 405.447 336.751 405.755 336.751C405.825 336.751 405.903 336.754 405.989 336.761C406.078 336.766 406.151 336.774 406.209 336.786V337.951C406.156 337.932 406.071 337.916 405.954 337.902C405.84 337.885 405.729 337.877 405.622 337.877C405.391 337.877 405.183 337.927 404.999 338.028C404.817 338.125 404.674 338.262 404.569 338.437C404.464 338.612 404.412 338.813 404.412 339.042V342.2H403.145ZM410.022 336.828V337.807H406.933V336.828H410.022ZM407.696 335.541H408.962V340.584C408.962 340.755 408.988 340.885 409.039 340.976C409.093 341.065 409.162 341.125 409.249 341.158C409.335 341.191 409.431 341.207 409.536 341.207C409.615 341.207 409.687 341.201 409.752 341.189C409.82 341.178 409.871 341.167 409.906 341.158L410.12 342.148C410.052 342.171 409.955 342.197 409.829 342.225C409.706 342.253 409.554 342.269 409.375 342.274C409.058 342.283 408.772 342.235 408.518 342.13C408.264 342.023 408.062 341.857 407.913 341.634C407.766 341.41 407.693 341.13 407.696 340.794V335.541ZM413.09 335.037H414.556L416.308 338.206H416.378L418.13 335.037H419.596L416.99 339.528V342.2H415.696V339.528L413.09 335.037ZM421.802 342.305C421.277 342.305 420.822 342.19 420.438 341.959C420.053 341.728 419.755 341.405 419.542 340.99C419.332 340.575 419.228 340.09 419.228 339.535C419.228 338.98 419.332 338.494 419.542 338.076C419.755 337.659 420.053 337.335 420.438 337.104C420.822 336.873 421.277 336.758 421.802 336.758C422.326 336.758 422.781 336.873 423.166 337.104C423.551 337.335 423.848 337.659 424.058 338.076C424.27 338.494 424.376 338.98 424.376 339.535C424.376 340.09 424.27 340.575 424.058 340.99C423.848 341.405 423.551 341.728 423.166 341.959C422.781 342.19 422.326 342.305 421.802 342.305ZM421.809 341.291C422.093 341.291 422.331 341.213 422.522 341.056C422.713 340.898 422.856 340.686 422.949 340.42C423.045 340.154 423.092 339.858 423.092 339.532C423.092 339.203 423.045 338.905 422.949 338.64C422.856 338.371 422.713 338.158 422.522 338C422.331 337.841 422.093 337.762 421.809 337.762C421.517 337.762 421.275 337.841 421.081 338C420.89 338.158 420.747 338.371 420.651 338.64C420.558 338.905 420.511 339.203 420.511 339.532C420.511 339.858 420.558 340.154 420.651 340.42C420.747 340.686 420.89 340.898 421.081 341.056C421.275 341.213 421.517 341.291 421.809 341.291ZM428.875 339.941V336.828H430.141V342.2H428.913V341.245H428.857C428.736 341.546 428.537 341.792 428.259 341.983C427.984 342.175 427.645 342.27 427.241 342.27C426.889 342.27 426.578 342.192 426.308 342.036C426.039 341.877 425.83 341.648 425.678 341.347C425.526 341.044 425.451 340.678 425.451 340.249V336.828H426.717V340.053C426.717 340.393 426.81 340.664 426.997 340.864C427.183 341.065 427.428 341.165 427.731 341.165C427.918 341.165 428.098 341.119 428.273 341.028C428.448 340.938 428.592 340.802 428.703 340.623C428.818 340.441 428.875 340.214 428.875 339.941ZM431.443 342.2V336.828H432.671V337.723H432.727C432.825 337.413 432.992 337.174 433.23 337.006C433.47 336.836 433.744 336.751 434.052 336.751C434.122 336.751 434.2 336.754 434.287 336.761C434.375 336.766 434.449 336.774 434.507 336.786V337.951C434.453 337.932 434.368 337.916 434.252 337.902C434.137 337.885 434.027 337.877 433.919 337.877C433.688 337.877 433.481 337.927 433.297 338.028C433.115 338.125 432.971 338.262 432.867 338.437C432.762 338.612 432.709 338.813 432.709 339.042V342.2H431.443ZM437.847 342.2V335.037H440.533C441.084 335.037 441.545 335.14 441.918 335.345C442.294 335.55 442.577 335.832 442.768 336.191C442.962 336.548 443.059 336.954 443.059 337.408C443.059 337.868 442.962 338.276 442.768 338.633C442.575 338.989 442.289 339.27 441.911 339.476C441.534 339.678 441.068 339.78 440.516 339.78H438.736V338.713H440.341C440.663 338.713 440.926 338.657 441.131 338.545C441.337 338.433 441.488 338.279 441.586 338.083C441.686 337.888 441.737 337.663 441.737 337.408C441.737 337.154 441.686 336.93 441.586 336.737C441.488 336.543 441.335 336.393 441.128 336.286C440.923 336.176 440.658 336.121 440.334 336.121H439.145V342.2H437.847ZM446.396 342.305C445.872 342.305 445.417 342.19 445.032 341.959C444.647 341.728 444.349 341.405 444.137 340.99C443.927 340.575 443.822 340.09 443.822 339.535C443.822 338.98 443.927 338.494 444.137 338.076C444.349 337.659 444.647 337.335 445.032 337.104C445.417 336.873 445.872 336.758 446.396 336.758C446.921 336.758 447.376 336.873 447.76 337.104C448.145 337.335 448.442 337.659 448.652 338.076C448.864 338.494 448.971 338.98 448.971 339.535C448.971 340.09 448.864 340.575 448.652 340.99C448.442 341.405 448.145 341.728 447.76 341.959C447.376 342.19 446.921 342.305 446.396 342.305ZM446.403 341.291C446.688 341.291 446.926 341.213 447.117 341.056C447.308 340.898 447.45 340.686 447.543 340.42C447.639 340.154 447.687 339.858 447.687 339.532C447.687 339.203 447.639 338.905 447.543 338.64C447.45 338.371 447.308 338.158 447.117 338C446.926 337.841 446.688 337.762 446.403 337.762C446.112 337.762 445.869 337.841 445.676 338C445.485 338.158 445.341 338.371 445.246 338.64C445.152 338.905 445.106 339.203 445.106 339.532C445.106 339.858 445.152 340.154 445.246 340.42C445.341 340.686 445.485 340.898 445.676 341.056C445.869 341.213 446.112 341.291 446.403 341.291ZM452.039 342.295C451.617 342.295 451.239 342.186 450.906 341.969C450.572 341.752 450.309 341.438 450.115 341.025C449.922 340.612 449.825 340.111 449.825 339.521C449.825 338.924 449.923 338.42 450.119 338.01C450.317 337.597 450.584 337.286 450.92 337.076C451.255 336.864 451.63 336.758 452.042 336.758C452.357 336.758 452.616 336.812 452.819 336.919C453.022 337.024 453.183 337.151 453.301 337.3C453.42 337.447 453.513 337.586 453.578 337.716H453.63V335.037H454.9V342.2H453.655V341.354H453.578C453.513 341.484 453.418 341.623 453.294 341.77C453.171 341.915 453.008 342.038 452.805 342.141C452.602 342.243 452.347 342.295 452.039 342.295ZM452.392 341.256C452.66 341.256 452.889 341.184 453.078 341.039C453.267 340.892 453.41 340.688 453.508 340.427C453.606 340.166 453.655 339.861 453.655 339.514C453.655 339.167 453.606 338.865 453.508 338.608C453.412 338.352 453.27 338.152 453.081 338.01C452.895 337.868 452.665 337.797 452.392 337.797C452.11 337.797 451.874 337.87 451.686 338.017C451.497 338.164 451.354 338.367 451.259 338.626C451.163 338.884 451.115 339.181 451.115 339.514C451.115 339.85 451.163 340.149 451.259 340.413C451.357 340.674 451.5 340.88 451.689 341.032C451.88 341.181 452.115 341.256 452.392 341.256ZM458.593 342.305C458.056 342.305 457.596 342.187 457.211 341.952C456.829 341.716 456.534 341.391 456.326 340.976C456.121 340.559 456.018 340.078 456.018 339.535C456.018 338.989 456.123 338.508 456.333 338.09C456.543 337.671 456.839 337.344 457.221 337.111C457.606 336.876 458.061 336.758 458.586 336.758C459.022 336.758 459.407 336.838 459.743 336.999C460.081 337.158 460.351 337.383 460.551 337.674C460.752 337.963 460.866 338.301 460.894 338.689H459.684C459.635 338.43 459.518 338.214 459.334 338.042C459.152 337.867 458.908 337.779 458.603 337.779C458.344 337.779 458.117 337.849 457.921 337.989C457.725 338.127 457.572 338.325 457.463 338.584C457.356 338.842 457.302 339.153 457.302 339.514C457.302 339.88 457.356 340.195 457.463 340.458C457.57 340.72 457.72 340.921 457.914 341.063C458.11 341.203 458.34 341.273 458.603 341.273C458.79 341.273 458.956 341.238 459.103 341.168C459.252 341.096 459.377 340.992 459.477 340.857C459.578 340.722 459.646 340.557 459.684 340.364H460.894C460.864 340.744 460.752 341.081 460.558 341.375C460.365 341.666 460.101 341.895 459.768 342.06C459.434 342.224 459.043 342.305 458.593 342.305ZM463.48 342.309C463.139 342.309 462.833 342.248 462.56 342.127C462.289 342.003 462.075 341.821 461.916 341.581C461.76 341.341 461.682 341.045 461.682 340.693C461.682 340.39 461.738 340.139 461.85 339.941C461.962 339.743 462.114 339.584 462.308 339.465C462.501 339.346 462.719 339.256 462.962 339.196C463.207 339.133 463.46 339.087 463.721 339.059C464.036 339.027 464.291 338.998 464.487 338.972C464.683 338.944 464.825 338.902 464.914 338.846C465.005 338.788 465.05 338.698 465.05 338.577V338.556C465.05 338.292 464.972 338.088 464.816 337.944C464.659 337.799 464.434 337.727 464.141 337.727C463.831 337.727 463.585 337.794 463.403 337.93C463.223 338.065 463.102 338.225 463.039 338.409L461.857 338.241C461.95 337.914 462.104 337.642 462.318 337.422C462.533 337.201 462.795 337.035 463.105 336.926C463.415 336.814 463.758 336.758 464.134 336.758C464.392 336.758 464.65 336.788 464.907 336.849C465.163 336.909 465.397 337.01 465.61 337.15C465.822 337.287 465.992 337.475 466.12 337.713C466.251 337.951 466.316 338.248 466.316 338.605V342.2H465.099V341.462H465.057C464.98 341.611 464.872 341.751 464.732 341.882C464.594 342.01 464.42 342.114 464.211 342.193C464.003 342.27 463.759 342.309 463.48 342.309ZM463.808 341.378C464.063 341.378 464.283 341.328 464.469 341.228C464.656 341.125 464.799 340.99 464.9 340.822C465.002 340.654 465.054 340.471 465.054 340.273V339.64C465.014 339.673 464.946 339.703 464.851 339.731C464.757 339.759 464.652 339.783 464.536 339.804C464.419 339.825 464.304 339.844 464.19 339.86C464.075 339.877 463.976 339.891 463.892 339.902C463.703 339.928 463.534 339.97 463.385 340.028C463.236 340.086 463.118 340.168 463.032 340.273C462.946 340.376 462.902 340.509 462.902 340.672C462.902 340.905 462.988 341.081 463.158 341.2C463.328 341.319 463.545 341.378 463.808 341.378ZM471.835 338.248L470.681 338.374C470.649 338.257 470.591 338.148 470.51 338.045C470.431 337.942 470.323 337.86 470.188 337.797C470.053 337.734 469.887 337.702 469.691 337.702C469.428 337.702 469.206 337.759 469.027 337.874C468.85 337.988 468.762 338.136 468.765 338.318C468.762 338.474 468.819 338.601 468.936 338.699C469.055 338.797 469.251 338.877 469.524 338.94L470.44 339.136C470.948 339.246 471.326 339.42 471.573 339.657C471.823 339.895 471.949 340.207 471.951 340.591C471.949 340.929 471.849 341.228 471.654 341.487C471.46 341.743 471.191 341.944 470.846 342.088C470.501 342.233 470.104 342.305 469.656 342.305C468.999 342.305 468.47 342.168 468.068 341.892C467.667 341.615 467.428 341.229 467.351 340.735L468.586 340.616C468.642 340.858 468.761 341.041 468.943 341.165C469.125 341.288 469.361 341.35 469.653 341.35C469.954 341.35 470.195 341.288 470.377 341.165C470.561 341.041 470.653 340.889 470.653 340.707C470.653 340.553 470.594 340.426 470.475 340.325C470.358 340.225 470.176 340.148 469.929 340.095L469.013 339.902C468.498 339.795 468.116 339.614 467.869 339.36C467.622 339.104 467.5 338.78 467.502 338.388C467.5 338.057 467.589 337.77 467.771 337.527C467.955 337.283 468.211 337.094 468.537 336.961C468.866 336.825 469.245 336.758 469.674 336.758C470.303 336.758 470.799 336.892 471.16 337.16C471.524 337.428 471.749 337.791 471.835 338.248ZM475.678 336.828V337.807H472.589V336.828H475.678ZM473.352 335.541H474.618V340.584C474.618 340.755 474.643 340.885 474.695 340.976C474.748 341.065 474.818 341.125 474.905 341.158C474.991 341.191 475.086 341.207 475.191 341.207C475.271 341.207 475.343 341.201 475.408 341.189C475.476 341.178 475.527 341.167 475.562 341.158L475.776 342.148C475.708 342.171 475.611 342.197 475.485 342.225C475.362 342.253 475.21 342.269 475.031 342.274C474.713 342.283 474.428 342.235 474.174 342.13C473.919 342.023 473.718 341.857 473.569 341.634C473.422 341.41 473.349 341.13 473.352 340.794V335.541Z" fill="white"/>
<path fill-rule="evenodd" clip-rule="evenodd" d="M487.328 334.984C487.544 334.768 487.895 334.768 488.111 334.984L491.436 338.308C491.652 338.525 491.652 338.876 491.436 339.092L488.111 342.416C487.895 342.632 487.544 342.632 487.328 342.416C487.112 342.2 487.112 341.849 487.328 341.633L489.706 339.254L483.287 339.254C482.981 339.254 482.733 339.006 482.733 338.7C482.733 338.394 482.981 338.146 483.287 338.146H489.706L487.328 335.768C487.112 335.551 487.112 335.201 487.328 334.984Z" fill="white"/>
<path d="M430.516 153.438C430.516 167.802 418.872 179.445 404.509 179.445C390.145 179.445 378.502 167.802 378.502 153.438C378.502 139.076 390.145 127.431 404.509 127.431C418.872 127.431 430.516 139.076 430.516 153.438Z" fill="#FFCDBE"/>
<path d="M404.509 179.446C390.145 179.446 378.502 191.09 378.502 205.453V231.46H430.516V205.453C430.516 191.09 418.872 179.446 404.509 179.446Z" fill="#988FCC"/>
<path d="M434.401 153.436C434.401 136.953 420.991 123.544 404.509 123.544C388.026 123.544 374.617 136.953 374.617 153.436C374.617 164.569 380.736 174.299 389.787 179.443C380.736 184.586 374.617 194.317 374.617 205.45V231.457C374.617 233.602 376.356 235.342 378.502 235.342H430.516C432.662 235.342 434.401 233.602 434.401 231.457V205.45C434.401 194.317 428.282 184.586 419.231 179.443C428.282 174.299 434.401 164.569 434.401 153.436ZM426.631 205.45V227.572H382.387V205.45C382.387 193.252 392.31 183.328 404.509 183.328C416.707 183.328 426.631 193.252 426.631 205.45ZM404.509 175.558C392.31 175.558 382.387 165.634 382.387 153.436C382.387 141.238 392.31 131.313 404.509 131.313C416.707 131.313 426.631 141.238 426.631 153.436C426.631 165.634 416.707 175.558 404.509 175.558Z" fill="#12141D"/>
<path d="M487.802 122.158C486.285 120.641 483.825 120.641 482.308 122.158C480.791 123.675 480.791 126.135 482.308 127.652C505.129 150.474 505.129 187.608 482.308 210.43C480.791 211.947 480.791 214.407 482.308 215.924C483.066 216.682 484.06 217.062 485.055 217.062C486.049 217.062 487.043 216.682 487.801 215.924C500.324 203.401 507.221 186.751 507.221 169.041C507.221 151.331 500.324 134.681 487.802 122.158Z" fill="#12141D"/>
<path d="M476.03 133.927C474.513 132.411 472.053 132.411 470.536 133.927C469.019 135.444 469.019 137.904 470.536 139.421C478.448 147.333 482.805 157.852 482.805 169.041C482.805 180.229 478.448 190.748 470.536 198.66C469.019 200.177 469.019 202.636 470.536 204.154C471.295 204.912 472.289 205.292 473.283 205.292C474.277 205.292 475.272 204.912 476.03 204.154C485.409 194.775 490.574 182.305 490.574 169.041C490.575 155.777 485.41 143.307 476.03 133.927Z" fill="#12141D"/>
<path d="M464.268 145.696C462.751 144.179 460.292 144.179 458.774 145.696C457.257 147.213 457.257 149.673 458.774 151.19C468.616 161.032 468.616 177.047 458.774 186.891C457.257 188.408 457.257 190.867 458.774 192.385C459.533 193.143 460.527 193.522 461.522 193.522C462.516 193.522 463.51 193.143 464.269 192.384C477.14 179.512 477.139 158.568 464.268 145.696Z" fill="#12141D"/>
<path d="M446.993 157.467C445.476 158.984 445.476 161.444 446.993 162.961C448.617 164.585 449.512 166.744 449.512 169.041C449.512 171.338 448.618 173.497 446.993 175.12C445.476 176.637 445.476 179.097 446.993 180.615C447.751 181.373 448.746 181.753 449.74 181.753C450.734 181.753 451.728 181.373 452.487 180.615C455.579 177.523 457.281 173.413 457.281 169.041C457.281 164.669 455.579 160.558 452.487 157.467C450.97 155.949 448.51 155.949 446.993 157.467Z" fill="#12141D"/>
</g>
<defs>
<filter id="filter0_d_65_1100" x="0.167969" y="-35" width="719.179" height="525" filterUnits="userSpaceOnUse" color-interpolation-filters="sRGB">
<feFlood flood-opacity="0" result="BackgroundImageFix"/>
<feColorMatrix in="SourceAlpha" type="matrix" values="0 0 0 0 0 0 0 0 0 0 0 0 0 0 0 0 0 0 127 0" result="hardAlpha"/>
<feOffset dy="3.5"/>
<feGaussianBlur stdDeviation="43.75"/>
<feComposite in2="hardAlpha" operator="out"/>
<feColorMatrix type="matrix" values="0 0 0 0 0 0 0 0 0 0 0 0 0 0 0 0 0 0 0.08 0"/>
<feBlend mode="normal" in2="BackgroundImageFix" result="effect1_dropShadow_65_1100"/>
<feBlend mode="normal" in="SourceGraphic" in2="effect1_dropShadow_65_1100" result="shape"/>
</filter>
<linearGradient id="paint0_linear_65_1100" x1="338.21" y1="361.441" x2="406.071" y2="244.645" gradientUnits="userSpaceOnUse">
<stop stop-color="#0050FF"/>
<stop offset="1" stop-color="#3CF096"/>
</linearGradient>
</defs>
</svg>
