<svg width="734" height="381" viewBox="0 0 734 381" fill="none" xmlns="http://www.w3.org/2000/svg">
<path d="M0.667969 68.3994V22.3994C0.667969 10.5253 10.2938 0.899414 22.168 0.899414H266.918C285.558 0.899414 300.668 16.0098 300.668 34.6494C300.668 53.289 315.778 68.3994 334.418 68.3994H389.668H693.668C715.759 68.3994 733.668 86.308 733.668 108.399V315.899C733.668 337.991 715.759 355.899 693.668 355.899H401.918C395.152 355.899 389.668 361.384 389.668 368.149C389.668 374.915 384.183 380.399 377.418 380.399H40.668C18.5766 380.399 0.667969 362.491 0.667969 340.399V68.3994Z" fill="url(#paint0_linear_65_340)"/>
<defs>
<linearGradient id="paint0_linear_65_340" x1="-131.882" y1="430.374" x2="672.601" y2="-217.433" gradientUnits="userSpaceOnUse">
<stop stop-color="#0050FF"/>
<stop offset="1" stop-color="#3CF096"/>
</linearGradient>
</defs>
</svg>
