<svg width="33" height="33" viewBox="0 0 33 33" fill="none" xmlns="http://www.w3.org/2000/svg">
<path d="M3.15126 11.9958C3.4346 11.781 3.61893 11.4966 3.71033 11.189C3.72099 11.1519 3.75451 11.1271 3.79259 11.1287L6.44018 11.24C6.44322 11.257 6.44627 11.2724 6.44932 11.2894C6.66106 12.1102 7.42731 12.6929 8.26363 12.6682C8.33675 12.6667 8.40987 12.6589 8.48147 12.6497C9.34521 12.5229 10.2242 12.7548 10.9264 13.2803L11.3119 13.5693C12.0111 14.0933 12.4407 14.877 12.6204 15.7379C12.6341 15.8276 12.6509 15.9188 12.6783 16.0084C12.8032 16.4289 13.0759 16.7797 13.4247 17.0131C13.4339 17.0193 13.443 17.0255 13.4522 17.0301C13.4963 17.0595 13.542 17.0858 13.5893 17.1105C13.5984 17.1152 13.6091 17.1213 13.6182 17.126C13.7325 17.1847 13.8543 17.2295 13.9792 17.2635C13.9823 17.2635 13.9869 17.2651 13.9899 17.2666C14.1544 17.3084 14.3266 17.3285 14.5017 17.3207C14.5048 17.3207 14.5063 17.3207 14.5094 17.3207C14.5094 17.3207 14.5094 17.3207 14.5109 17.3207C14.5216 17.3207 14.5307 17.3207 14.5414 17.3207C14.5566 17.3207 14.5703 17.3176 14.5855 17.3161C14.5992 17.3161 14.6114 17.313 14.6251 17.3115C14.6526 17.3084 14.68 17.3068 14.7059 17.3022C15.5529 17.1507 16.4242 17.279 17.1341 17.7705L17.62 18.1059C18.3528 18.6129 18.8357 19.3981 19.0231 20.2776C19.0337 20.3256 19.0459 20.3735 19.0596 20.4214C19.2973 21.2313 20.0696 21.7847 20.9013 21.7399C22.117 21.6734 22.9274 20.4678 22.5481 19.2946C22.2891 18.4924 21.5015 17.9637 20.6713 18.0318C20.618 18.0364 20.5662 18.0426 20.5144 18.0518C19.6415 18.1987 18.7473 18.024 18.0161 17.5186L17.617 17.2419C17.518 17.1739 17.4235 17.0997 17.3352 17.0209C16.2414 16.0579 16.0068 14.3886 16.7853 13.1489C16.8508 13.0454 16.9224 12.9433 17.0016 12.846L17.3199 12.4518C17.8775 11.7609 18.6894 11.3559 19.5623 11.2415C19.6141 11.2353 19.6674 11.2261 19.7208 11.2137C20.3773 11.07 21.0293 10.3837 21.1344 9.70975C21.1634 9.52736 21.1649 9.35115 21.1451 9.18267C21.1024 8.82098 21.2456 8.46238 21.532 8.24443L23.4134 6.80694C23.5657 6.68947 23.7805 6.70956 23.913 6.84867C24.1964 7.1439 24.5741 7.34639 24.9915 7.39739C25.0647 7.40667 25.1378 7.41131 25.2094 7.41131C26.0823 7.41594 26.9155 7.77918 27.534 8.40519L27.8737 8.74988C27.8737 8.74988 27.8859 8.76224 27.892 8.76842C28.7649 9.66956 28.1769 11.2013 26.9369 11.3049L25.4866 11.4255C25.3983 11.1581 25.2292 10.9138 24.9687 10.7361C24.5132 10.4254 23.8978 10.4362 23.456 10.767C22.7263 11.3126 22.7309 12.4085 23.4697 12.948C23.9176 13.2741 24.5361 13.2772 24.987 12.9557C25.3023 12.7316 25.4836 12.407 25.5369 12.0654L28.1068 11.8505C28.5653 11.8119 29.0162 11.9896 29.324 12.3359C29.7901 12.8599 30.5411 13.118 31.3028 12.8351C31.8085 12.6466 32.2138 12.2354 32.3981 11.7222C32.8216 10.5444 32.0035 9.3867 30.9113 9.25222C30.8397 9.24295 30.7681 9.23831 30.698 9.23831C29.8221 9.23059 28.9873 8.87198 28.3673 8.24443L28.0245 7.89665C27.4106 7.27374 27.0481 6.43443 27.0481 5.55493C27.0481 5.44209 27.0389 5.32771 27.0176 5.21179C26.8683 4.3632 26.1782 3.75111 25.3297 3.69855C24.2009 3.629 23.2763 4.59969 23.3966 5.75587C23.4118 5.90116 23.3509 6.04337 23.2382 6.12993L21.2304 7.6648C20.9196 7.90284 20.5038 7.92448 20.158 7.74518C20.1549 7.74363 20.1503 7.74054 20.1473 7.73899C19.736 7.52878 19.4633 7.11608 19.3902 6.65392L19.119 4.93356C19.0383 4.42503 19.2059 3.8964 19.5928 3.56408C19.8045 3.38323 19.9797 3.1452 20.0985 2.84997C20.3027 2.34144 20.2798 1.75871 20.0285 1.27182C19.4618 0.174375 18.0831 -0.00183356 17.2468 0.712276C17.1844 0.76483 17.128 0.820475 17.0747 0.879211C16.4806 1.52995 15.6306 1.88082 14.7562 1.91173L14.3068 1.92719C13.4354 1.9581 12.5823 1.64897 11.941 1.04769C11.8176 0.931764 11.6759 0.828203 11.5129 0.744736C10.8442 0.396955 10.0551 0.508245 9.49145 1.01214C8.84707 1.58868 8.7054 2.49446 9.04968 3.21784L3.46203 8.7576C3.16192 9.05438 2.7491 9.18267 2.3317 9.1533C1.89907 9.12239 1.45577 9.27386 1.12368 9.61083C0.476257 10.2677 0.518911 11.3575 1.25012 11.9587C1.79396 12.4054 2.59067 12.4209 3.15126 11.9958ZM9.6057 3.90258C10.2745 4.41266 11.2311 4.38639 11.8709 3.84076C11.9288 3.79129 11.9821 3.74029 12.0309 3.68773C12.6296 3.04318 13.4598 2.67376 14.3327 2.64285L14.7851 2.62739C15.658 2.59647 16.5278 2.88706 17.1646 3.49452C17.2209 3.54862 17.2819 3.59963 17.3474 3.64755C17.4433 3.71865 17.5454 3.77893 17.6505 3.82839C18.0953 4.03551 18.4046 4.46058 18.4823 4.95056L18.7306 6.52872C18.8159 7.06816 18.6011 7.60606 18.1806 7.95075C17.7709 8.28617 17.5058 8.79625 17.4936 9.3496C17.4936 9.35579 17.4936 9.36197 17.4936 9.36815C17.4814 10.4687 17.1417 11.5414 16.4547 12.3931C15.8926 13.0902 15.0761 13.4905 14.1986 13.6204C13.3196 13.71 12.4376 13.5261 11.7262 12.9943L11.3362 12.7022C10.6385 12.1798 10.1541 11.4038 10.0261 10.5336C10.0155 10.4579 9.99872 10.3821 9.97892 10.3064V10.3033C9.9317 10.1302 9.98806 9.94624 10.1236 9.83186L13.4887 6.98469C14.0036 7.36957 14.7303 7.32938 15.1994 6.86104C15.7037 6.35714 15.7204 5.50856 15.2345 4.98611C14.7211 4.43276 13.8619 4.42194 13.3364 4.95675C12.9266 5.37254 12.8428 5.99236 13.0835 6.49316L9.7946 9.27541C9.64378 9.40216 9.43052 9.40834 9.27056 9.29396C8.94914 9.06365 8.55611 8.9369 8.14785 8.95391C7.35266 8.98791 6.72047 9.51654 6.48588 10.2121C6.41123 10.4331 6.21167 10.5862 5.98012 10.5769L3.82154 10.4857C3.78345 10.4841 3.75146 10.4548 3.74384 10.4177C3.63569 9.87359 3.8063 9.30941 4.19933 8.92145L9.42747 3.74647C9.48231 3.80057 9.54172 3.85312 9.6057 3.90104V3.90258Z" fill="url(#paint0_linear_65_90)"/>
<path d="M32.6345 20.8294C32.4928 20.1508 31.9078 19.6408 31.2254 19.5928C31.1766 19.5898 31.1279 19.5882 31.0807 19.5898C30.3281 19.6068 29.5939 19.3548 29.0378 18.8401L28.7332 18.5588C28.1802 18.0472 27.8603 17.3346 27.81 16.5757C27.807 16.5231 27.8009 16.4706 27.7917 16.4165C27.679 15.7255 27.1123 15.183 26.4268 15.1103C25.397 15.0037 24.5653 15.9017 24.7207 16.9265C24.7709 17.2604 24.9294 17.5603 25.1548 17.789C25.4641 18.1043 25.5996 18.5541 25.5021 18.9885L23.5325 27.853C23.4837 28.0756 23.3161 28.258 23.0953 28.3044C22.6809 28.3909 22.2955 28.6491 22.0533 29.0772C21.7486 29.6136 21.7958 30.3029 22.166 30.7945C22.7753 31.606 23.9194 31.6276 24.5638 30.9104C24.9827 30.4436 25.0741 29.7913 24.8502 29.2442C24.7618 29.0278 24.8182 28.7774 24.9751 28.6058L29.9138 23.1835C30.1941 22.8759 30.5962 22.7121 31.0075 22.7383H31.0136C32.0419 22.8002 32.8493 21.8635 32.633 20.8232L32.6345 20.8294ZM26.0353 19.5233C26.2242 18.6716 27.1809 18.245 27.9182 18.6948C28.0659 18.7845 28.2046 18.8896 28.3356 19.0101L28.4285 19.0951C29.0546 19.6732 29.4918 20.4553 29.5664 21.3101C29.5695 21.3534 29.5756 21.3951 29.5832 21.4384C29.5832 21.4415 29.5832 21.4446 29.5832 21.4477C29.6868 22.0459 29.536 22.6595 29.1308 23.1047L24.2774 28.4342C24.2423 28.4728 24.186 28.4806 24.1403 28.4558C24.1403 28.4558 24.1403 28.4558 24.1387 28.4558C24.093 28.4311 24.0671 28.3801 24.0793 28.3291L26.0368 19.5233H26.0353Z" fill="url(#paint1_linear_65_90)"/>
<path d="M19.9582 16.4104C20.8172 16.4104 21.5135 15.7038 21.5135 14.8322C21.5135 13.9606 20.8172 13.2541 19.9582 13.2541C19.0992 13.2541 18.4028 13.9606 18.4028 14.8322C18.4028 15.7038 19.0992 16.4104 19.9582 16.4104Z" fill="url(#paint2_linear_65_90)"/>
<path d="M21.9748 25.6366C22.1988 24.4325 21.2512 23.3443 20.0387 23.4309C19.2115 23.4896 18.5153 24.1326 18.3752 24.9627C18.3675 25.0075 18.3614 25.0523 18.3569 25.0956C18.267 25.9937 17.8831 26.833 17.2128 27.425L16.8503 27.7449C16.3521 28.1839 15.7428 28.4358 15.0984 28.5286C14.9446 28.5502 14.8105 28.4204 14.8227 28.2627L15.3345 21.7646C15.6697 21.709 15.9881 21.5251 16.209 21.2051C16.5258 20.7476 16.5228 20.12 16.2013 19.6656C15.6697 18.9144 14.5881 18.9113 14.0504 19.6532C13.7244 20.103 13.7152 20.7275 14.0229 21.1896C14.1981 21.4524 14.4403 21.6255 14.7039 21.7136L14.1783 28.3833C14.1692 28.493 14.09 28.5842 13.9833 28.6043H13.9772C13.8645 28.6291 13.7503 28.5672 13.7061 28.459L10.0363 19.4878C9.74537 18.7768 9.72709 17.9823 9.98149 17.2574C9.98302 17.2512 9.98606 17.245 9.98759 17.2404C10.1871 16.6499 10.0683 15.9807 9.62503 15.5479C9.01569 14.9528 8.04684 14.9605 7.44664 15.5695C7.09017 15.9312 6.94393 16.4227 7.00639 16.8926C7.046 17.1971 6.93631 17.5001 6.6941 17.6825L5.10525 18.8804C4.6193 19.2467 3.9932 19.3595 3.41433 19.1849L3.40671 19.1818C2.20936 18.8247 1.00591 19.746 1.05466 21.0552C1.08055 21.7538 1.67009 22.522 2.32818 22.7307C2.37997 22.7477 2.43329 22.7616 2.48508 22.774C3.36863 22.9734 4.16381 23.4587 4.68023 24.213L4.93768 24.5902C5.43581 25.3182 5.63233 26.2162 5.48456 27.0896C5.4739 27.1514 5.46628 27.2148 5.46171 27.2781C5.4023 28.1236 5.93547 28.9212 6.73219 29.1747C7.50757 29.422 8.29057 29.1268 8.73996 28.5348C8.83593 28.408 9.00655 28.3694 9.14974 28.4343L12.5773 29.9676C12.5666 30.0094 12.556 30.0526 12.5499 30.0944C12.3396 31.2892 13.2826 32.365 14.4876 32.28C15.3087 32.2228 16.0018 31.5922 16.1495 30.7714C16.1617 30.708 16.1693 30.6446 16.1739 30.5828C16.247 29.6956 16.6522 28.8702 17.3164 28.2859L17.682 27.9644C18.3462 27.3786 19.2115 27.0973 20.092 27.1437C20.1468 27.1467 20.2017 27.1467 20.2565 27.1437C21.0974 27.1127 21.824 26.4805 21.9809 25.6412L21.9748 25.6366ZM9.08729 27.7016C9.09643 27.6445 9.10557 27.5873 9.11014 27.5285C9.17107 26.6815 8.6318 25.8793 7.83357 25.6289C7.76502 25.6072 7.69647 25.5902 7.62792 25.5763C6.76875 25.4094 6.00859 24.907 5.51046 24.1775L5.23778 23.7771C4.73964 23.0491 4.53704 22.1511 4.68785 21.2793C4.70003 21.2066 4.70917 21.134 4.71374 21.0583C4.71679 21.0165 4.71679 20.9763 4.71679 20.9346C4.7107 20.3519 4.95139 19.7954 5.41144 19.4476L7.07037 18.1972C7.31411 18.0132 7.63553 17.9916 7.91126 18.1184C7.91583 18.1199 7.9204 18.123 7.92497 18.1245C8.64399 18.4476 9.18783 19.0751 9.48945 19.8124L13.1622 28.7929C13.2019 28.8887 13.1775 28.9985 13.1028 29.068C13.048 29.119 12.9977 29.1731 12.949 29.2303C12.8789 29.3138 12.7631 29.3432 12.6641 29.2983L9.09186 27.7016H9.08729Z" fill="url(#paint3_linear_65_90)"/>
<path d="M3.25987 14.543C2.74345 15.067 2.74345 15.9172 3.25987 16.4412C3.77629 16.9651 4.61413 16.9651 5.13055 16.4412C5.64696 15.9172 5.64696 15.067 5.13055 14.543C4.61413 14.0191 3.77629 14.0191 3.25987 14.543Z" fill="url(#paint4_linear_65_90)"/>
<path d="M30.1236 15.2247C29.6072 15.7487 29.6072 16.5988 30.1236 17.1228C30.6401 17.6468 31.4779 17.6468 31.9943 17.1228C32.5107 16.5988 32.5107 15.7487 31.9943 15.2247C31.4779 14.7007 30.6401 14.7007 30.1236 15.2247Z" fill="url(#paint5_linear_65_90)"/>
<defs>
<linearGradient id="paint0_linear_65_90" x1="2.4688" y1="30.793" x2="22.4109" y2="3.57537" gradientUnits="userSpaceOnUse">
<stop offset="0.1" stop-color="#0050FF"/>
<stop offset="0.9" stop-color="#3CF096"/>
</linearGradient>
<linearGradient id="paint1_linear_65_90" x1="14.1501" y1="39.3514" x2="34.0922" y2="12.1323" gradientUnits="userSpaceOnUse">
<stop offset="0.1" stop-color="#0050FF"/>
<stop offset="0.9" stop-color="#3CF096"/>
</linearGradient>
<linearGradient id="paint2_linear_65_90" x1="6.49784" y1="33.7453" x2="26.4399" y2="6.52769" gradientUnits="userSpaceOnUse">
<stop offset="0.1" stop-color="#0050FF"/>
<stop offset="0.9" stop-color="#3CF096"/>
</linearGradient>
<linearGradient id="paint3_linear_65_90" x1="4.83561" y1="32.5273" x2="24.7777" y2="5.30968" gradientUnits="userSpaceOnUse">
<stop offset="0.1" stop-color="#0050FF"/>
<stop offset="0.9" stop-color="#3CF096"/>
</linearGradient>
<linearGradient id="paint4_linear_65_90" x1="-3.55408" y1="26.38" x2="16.3895" y2="-0.83763" gradientUnits="userSpaceOnUse">
<stop offset="0.1" stop-color="#0050FF"/>
<stop offset="0.9" stop-color="#3CF096"/>
</linearGradient>
<linearGradient id="paint5_linear_65_90" x1="14.4225" y1="39.5523" x2="34.3646" y2="12.3332" gradientUnits="userSpaceOnUse">
<stop offset="0.1" stop-color="#0050FF"/>
<stop offset="0.9" stop-color="#3CF096"/>
</linearGradient>
</defs>
</svg>
