<svg width="384" height="68" viewBox="0 0 384 68" fill="none" xmlns="http://www.w3.org/2000/svg">
<g clip-path="url(#clip0_65_436)">
<path d="M5.96903 24.6296C6.57388 24.1776 6.96736 23.5792 7.16248 22.9321C7.18524 22.8541 7.25678 22.802 7.33808 22.8053L12.9899 23.0394C12.9964 23.0752 13.0029 23.1077 13.0094 23.1435C13.4614 24.8702 15.0971 26.0962 16.8824 26.0442C17.0385 26.0409 17.1945 26.0246 17.3474 26.0051C19.1912 25.7385 21.0675 26.2263 22.5667 27.3319L23.3894 27.94C24.882 29.0424 25.799 30.6911 26.1828 32.5024C26.212 32.691 26.2478 32.8829 26.3063 33.0715C26.573 33.956 27.1551 34.6942 27.8997 35.1852C27.9193 35.1982 27.9388 35.2112 27.9583 35.221C28.0526 35.2828 28.1501 35.338 28.2509 35.3901C28.2705 35.3998 28.2932 35.4128 28.3127 35.4226C28.5566 35.5462 28.8168 35.6405 29.0834 35.712C29.0899 35.712 29.0997 35.7153 29.1062 35.7185C29.4574 35.8063 29.8249 35.8486 30.1988 35.8323C30.2053 35.8323 30.2086 35.8323 30.2151 35.8323C30.2151 35.8323 30.2151 35.8323 30.2183 35.8323C30.2411 35.8323 30.2606 35.8323 30.2834 35.8323C30.3159 35.8323 30.3452 35.8258 30.3777 35.8226C30.4069 35.8226 30.433 35.8161 30.4622 35.8128C30.5208 35.8063 30.5793 35.8031 30.6346 35.7933C32.4426 35.4746 34.3027 35.7445 35.8181 36.7786L36.8554 37.4843C38.4196 38.5509 39.4504 40.2029 39.8504 42.0532C39.8732 42.154 39.8992 42.2548 39.9285 42.3556C40.4358 44.0596 42.0845 45.2238 43.86 45.1295C46.455 44.9896 48.185 42.4532 47.3753 39.985C46.8225 38.2973 45.1412 37.1851 43.369 37.3282C43.2551 37.338 43.1446 37.351 43.034 37.3705C41.1707 37.6794 39.2618 37.3119 37.7009 36.2486L36.8489 35.6665C36.6376 35.5234 36.4359 35.3673 36.2473 35.2015C33.9125 33.1755 33.4117 29.6635 35.0734 27.0555C35.2132 26.8376 35.3661 26.623 35.5352 26.4181L36.2148 25.5889C37.405 24.1353 39.1383 23.2833 41.0016 23.0427C41.1122 23.0297 41.226 23.0102 41.3398 22.9841C42.7414 22.6817 44.1332 21.2379 44.3575 19.8201C44.4193 19.4363 44.4226 19.0656 44.3803 18.7112C44.2892 17.9502 44.5949 17.1958 45.2063 16.7373L49.2224 13.713C49.5475 13.4659 50.0061 13.5081 50.289 13.8008C50.8938 14.4219 51.7003 14.8479 52.5913 14.9552C52.7474 14.9747 52.9035 14.9845 53.0563 14.9845C54.9197 14.9943 56.6984 15.7584 58.0187 17.0755L58.7439 17.8006C58.7439 17.8006 58.7699 17.8266 58.7829 17.8397C60.6462 19.7355 59.391 22.9581 56.744 23.176L53.6482 23.4296C53.4596 22.8671 53.0986 22.3533 52.5425 21.9793C51.5702 21.3257 50.2565 21.3484 49.3134 22.0443C47.7558 23.1923 47.7655 25.4978 49.3427 26.6327C50.2987 27.3189 51.619 27.3254 52.5816 26.649C53.2547 26.1775 53.6417 25.4946 53.7555 24.7759L59.2414 24.3239C60.2202 24.2426 61.1828 24.6166 61.8397 25.345C62.8347 26.4474 64.4379 26.9905 66.0639 26.3954C67.1435 25.9986 68.0085 25.1336 68.402 24.054C69.306 21.5761 67.5597 19.1404 65.2281 18.8575C65.0753 18.838 64.9225 18.8282 64.7729 18.8282C62.903 18.812 61.121 18.0575 59.7975 16.7373L59.0658 16.0056C57.7553 14.6951 56.9814 12.9293 56.9814 11.079C56.9814 10.8416 56.9618 10.601 56.9163 10.3571C56.5976 8.57178 55.1245 7.28403 53.3132 7.17347C50.9036 7.02714 48.9297 9.06932 49.1866 11.5017C49.2191 11.8074 49.089 12.1066 48.8484 12.2887L44.5624 15.5178C43.899 16.0186 43.0113 16.0641 42.2731 15.6869C42.2666 15.6837 42.2568 15.6771 42.2503 15.6739C41.3723 15.2316 40.7902 14.3634 40.6341 13.3911L40.0553 9.77173C39.8829 8.70186 40.2407 7.58971 41.0666 6.89056C41.5186 6.51009 41.8926 6.0093 42.1463 5.38819C42.582 4.31832 42.5332 3.09236 41.9967 2.06801C40.787 -0.240827 37.844 -0.611542 36.0587 0.890829C35.9254 1.00139 35.8051 1.11846 35.6913 1.24203C34.423 2.61108 32.6085 3.34925 30.7419 3.41429L29.7826 3.44681C27.9225 3.51185 26.1015 2.86147 24.7324 1.59649C24.469 1.3526 24.1666 1.13472 23.8186 0.959119C22.3911 0.227445 20.7066 0.46158 19.5034 1.52169C18.1278 2.73465 17.8254 4.64025 18.5603 6.16213L6.63242 17.8169C5.9918 18.4413 5.11054 18.7112 4.21952 18.6494C3.29598 18.5843 2.34969 18.903 1.64077 19.6119C0.258723 20.994 0.349776 23.2866 1.91068 24.5515C3.0716 25.4913 4.77234 25.5239 5.96903 24.6296ZM19.7473 7.60272C21.1748 8.67584 23.217 8.62056 24.5828 7.47264C24.7064 7.36858 24.8202 7.26127 24.9243 7.15071C26.2023 5.79467 27.9745 5.01747 29.8379 4.95243L30.8037 4.91991C32.667 4.85488 34.5238 5.46623 35.8831 6.74422C36.0034 6.85804 36.1335 6.96535 36.2733 7.06616C36.4782 7.21574 36.6961 7.34257 36.9205 7.44663C37.87 7.88238 38.5302 8.77665 38.696 9.8075L39.2261 13.1277C39.4082 14.2626 38.9497 15.3942 38.0521 16.1194C37.1774 16.8251 36.6115 17.8982 36.5855 19.0624C36.5855 19.0754 36.5855 19.0884 36.5855 19.1014C36.5595 21.4167 35.8343 23.6735 34.3677 25.4653C33.1678 26.9319 31.4248 27.7742 29.5517 28.0473C27.6754 28.2359 25.7925 27.849 24.2739 26.7303L23.4414 26.1157C21.952 25.0166 20.9179 23.3841 20.6448 21.5533C20.622 21.394 20.5863 21.2346 20.544 21.0753V21.0688C20.4432 20.7046 20.5635 20.3176 20.8529 20.077L28.0363 14.087C29.1355 14.8967 30.6866 14.8121 31.6882 13.8268C32.7646 12.7667 32.8003 10.9814 31.763 9.88229C30.6671 8.71812 28.833 8.69535 27.7111 9.82051C26.8364 10.6953 26.6575 11.9993 27.1713 13.0529L20.1505 18.9063C19.8286 19.1729 19.3733 19.1859 19.0319 18.9453C18.3457 18.4608 17.5067 18.1941 16.6352 18.2299C14.9377 18.3014 13.5882 19.4136 13.0874 20.8769C12.9281 21.3419 12.5021 21.6639 12.0078 21.6444L7.39986 21.4525C7.31857 21.4492 7.25028 21.3875 7.23402 21.3094C7.00313 20.1648 7.36734 18.9778 8.20633 18.1616L19.3668 7.27428C19.4839 7.3881 19.6107 7.49866 19.7473 7.59947V7.60272Z" fill="url(#paint0_linear_65_436)"/>
<path d="M68.9057 43.2142C68.6033 41.7866 67.3545 40.7135 65.8977 40.6127C65.7936 40.6062 65.6896 40.6029 65.5888 40.6062C63.9823 40.6419 62.4149 40.1119 61.228 39.029L60.5776 38.4372C59.3972 37.3608 58.7143 35.8617 58.607 34.265C58.6005 34.1544 58.5875 34.0439 58.5679 33.9301C58.3273 32.4765 57.1176 31.3351 55.6543 31.1822C53.456 30.9578 51.6805 32.8472 52.0121 35.0032C52.1195 35.7056 52.4577 36.3365 52.9389 36.8177C53.5991 37.4811 53.8885 38.4274 53.6804 39.3412L49.4757 57.9908C49.3716 58.459 49.0139 58.8427 48.5424 58.9403C47.6579 59.1224 46.8352 59.6655 46.3181 60.5662C45.6677 61.6946 45.7685 63.145 46.5587 64.1791C47.8595 65.8863 50.3017 65.9319 51.6772 64.423C52.5715 63.4409 52.7666 62.0686 52.2886 60.9174C52.1 60.4622 52.2203 59.9354 52.5552 59.5744L63.0978 48.1668C63.6962 47.5197 64.5547 47.175 65.4327 47.2303H65.4457C67.6407 47.3603 69.3642 45.3897 68.9024 43.2012L68.9057 43.2142ZM54.8185 40.4663C55.2218 38.6746 57.2639 37.777 58.8379 38.7233C59.1533 38.9119 59.4492 39.1331 59.7289 39.3867L59.9272 39.5656C61.2638 40.7818 62.1971 42.4272 62.3564 44.2255C62.3629 44.3166 62.3759 44.4044 62.3922 44.4954C62.3922 44.5019 62.3922 44.5084 62.3922 44.5149C62.6133 45.7734 62.2914 47.0644 61.4264 48.001L51.0658 59.2135C50.9911 59.2948 50.8707 59.311 50.7732 59.259C50.7732 59.259 50.7732 59.259 50.7699 59.259C50.6724 59.207 50.6171 59.0996 50.6431 58.9923L54.8218 40.4663H54.8185Z" fill="url(#paint1_linear_65_436)"/>
<path d="M41.8475 33.9177C43.6812 33.9177 45.1677 32.4312 45.1677 30.5975C45.1677 28.7638 43.6812 27.2773 41.8475 27.2773C40.0138 27.2773 38.5273 28.7638 38.5273 30.5975C38.5273 32.4312 40.0138 33.9177 41.8475 33.9177Z" fill="url(#paint2_linear_65_436)"/>
<path d="M46.1514 53.3282C46.6295 50.795 44.6068 48.5056 42.0183 48.6877C40.2525 48.8113 38.7664 50.1641 38.4672 51.9103C38.451 52.0047 38.438 52.099 38.4282 52.19C38.2363 54.0794 37.4169 55.8451 35.986 57.0906L35.2121 57.7637C34.1487 58.6873 32.848 59.2173 31.4724 59.4124C31.144 59.458 30.8578 59.1848 30.8838 58.8531L31.9765 45.1822C32.6919 45.0651 33.3715 44.6782 33.843 44.005C34.5194 43.0425 34.5129 41.7222 33.8268 40.7661C32.6919 39.1857 30.383 39.1792 29.2351 40.7401C28.5392 41.6864 28.5197 43.0002 29.1766 43.9725C29.5506 44.5253 30.0676 44.8895 30.6302 45.0749L29.5083 59.1068C29.4888 59.3377 29.3197 59.5295 29.092 59.5718H29.079C28.8384 59.6238 28.5945 59.4937 28.5002 59.2661L20.6664 40.3922C20.0453 38.8963 20.0063 37.2248 20.5493 35.6997C20.5526 35.6867 20.5591 35.6737 20.5623 35.6639C20.9883 34.4217 20.7347 33.0136 19.7884 32.1031C18.4876 30.8511 16.4194 30.8674 15.1382 32.1486C14.3773 32.9096 14.0651 33.9437 14.1984 34.9323C14.283 35.5729 14.0488 36.2102 13.5318 36.594L10.1401 39.1142C9.1027 39.8849 7.76618 40.1223 6.53046 39.7548L6.5142 39.7483C3.95822 38.9971 1.38923 40.9352 1.49329 43.6896C1.54857 45.1594 2.80705 46.7756 4.21187 47.2146C4.32243 47.2504 4.43625 47.2797 4.54681 47.3057C6.43291 47.7252 8.13039 48.7463 9.23278 50.3332L9.78235 51.1266C10.8457 52.6583 11.2652 54.5476 10.9498 56.3849C10.927 56.515 10.9108 56.6483 10.901 56.7817C10.7742 58.5605 11.9123 60.2384 13.6131 60.7717C15.2683 61.292 16.9397 60.6709 17.8991 59.4255C18.1039 59.1588 18.4681 59.0775 18.7738 59.2141L26.0906 62.4399C26.0678 62.5277 26.045 62.6188 26.032 62.7066C25.5833 65.2203 27.5962 67.4836 30.1684 67.3048C31.9212 67.1845 33.4008 65.8577 33.7162 64.1309C33.7422 63.9976 33.7585 63.8643 33.7682 63.7342C33.9243 61.8676 34.7893 60.1311 36.2072 58.9019L36.9876 58.2255C38.4054 56.993 40.2525 56.4012 42.1321 56.4988C42.2492 56.5053 42.3662 56.5053 42.4833 56.4988C44.2783 56.4337 45.8295 55.1037 46.1644 53.3379L46.1514 53.3282ZM18.6405 57.6727C18.66 57.5524 18.6795 57.432 18.6893 57.3085C18.8193 55.5264 17.6682 53.8387 15.9642 53.3119C15.8178 53.2664 15.6715 53.2306 15.5252 53.2013C13.6911 52.8501 12.0684 51.7933 11.0051 50.2584L10.423 49.4162C9.3596 47.8845 8.9271 45.9952 9.24904 44.1611C9.27505 44.0083 9.29456 43.8554 9.30432 43.6961C9.31082 43.6083 9.31082 43.5237 9.31082 43.4359C9.29782 42.21 9.81161 41.0393 10.7937 40.3076L14.335 37.6768C14.8553 37.2899 15.5414 37.2443 16.13 37.511C16.1398 37.5143 16.1495 37.5208 16.1593 37.524C17.6942 38.2037 18.8551 39.5239 19.499 41.0751L27.3393 59.9685C27.4238 60.1701 27.3718 60.401 27.2125 60.5474C27.0954 60.6547 26.9881 60.7685 26.884 60.8888C26.7344 61.0644 26.4873 61.1262 26.2759 61.0319L18.6502 57.6727H18.6405Z" fill="url(#paint3_linear_65_436)"/>
<path d="M6.19984 29.9889C5.09745 31.0913 5.09745 32.8798 6.19984 33.9822C7.30223 35.0846 9.09076 35.0846 10.1932 33.9822C11.2955 32.8798 11.2955 31.0913 10.1932 29.9889C9.09076 28.8865 7.30223 28.8865 6.19984 29.9889Z" fill="url(#paint4_linear_65_436)"/>
<path d="M63.5475 31.4225C62.4451 32.5249 62.4451 34.3134 63.5475 35.4158C64.6499 36.5182 66.4384 36.5182 67.5408 35.4158C68.6432 34.3134 68.6432 32.5249 67.5408 31.4225C66.4384 30.3201 64.6499 30.3201 63.5475 31.4225Z" fill="url(#paint5_linear_65_436)"/>
<path d="M91.1873 15.9565H84.625V51.5679H91.1873V15.9565Z" fill="white"/>
<path d="M98.77 25.4168C95.9668 25.4168 93.7783 26.2005 92.2012 27.7549V33.7417C92.354 33.5108 92.5264 33.2961 92.7182 33.0978C93.7361 32.0474 95.0921 31.5239 96.7863 31.5239C98.3147 31.5239 99.5342 31.9726 100.451 32.8701C101.365 33.7709 101.823 35.0684 101.823 36.7627V51.5652H108.386V35.9464C108.386 32.6588 107.479 30.08 105.661 28.2134C103.846 26.3501 101.55 25.4136 98.7667 25.4136L98.77 25.4168Z" fill="white"/>
<path d="M367.182 29.1306C365.218 26.6592 362.451 25.417 358.89 25.417C355.329 25.417 352.588 26.7145 350.165 29.3095C347.739 31.9045 346.529 35.0848 346.529 38.8473C346.529 42.6097 347.739 45.79 350.165 48.3851C352.591 50.9801 355.501 52.2776 358.89 52.2776C362.451 52.2776 365.215 51.0386 367.182 48.5607V51.5621H373.744V26.1259H367.182V29.1241V29.1306ZM365.176 44.0113C363.836 45.3543 362.145 46.0209 360.112 46.0209C358.08 46.0209 356.399 45.3543 355.075 44.0113C353.752 42.6747 353.088 40.9512 353.088 38.8505C353.088 36.7498 353.752 35.0296 355.075 33.6865C356.399 32.35 358.077 31.6801 360.112 31.6801C362.148 31.6801 363.836 32.35 365.176 33.6865C366.512 35.0296 367.182 36.7498 367.182 38.8505C367.182 40.9512 366.512 42.6747 365.176 44.0113Z" fill="white"/>
<path d="M175.625 14.4282H169.062V51.568H175.625V14.4282Z" fill="white"/>
<path d="M204.829 15.9565H198.27V51.5679H204.829V15.9565Z" fill="white"/>
<path d="M212.415 25.4162C209.611 25.4162 207.423 26.1934 205.846 27.751V33.7312C205.999 33.5036 206.171 33.289 206.36 33.0939C207.381 32.0435 208.733 31.52 210.431 31.52C211.959 31.52 213.179 31.9687 214.092 32.8662C215.01 33.767 215.465 35.0645 215.465 36.7587V51.5613H222.027V35.9425C222.027 32.6549 221.12 30.0761 219.305 28.2095C217.491 26.3462 215.192 25.4097 212.411 25.4097L212.415 25.4162Z" fill="white"/>
<path d="M231.584 14.4282H225.021V51.568H231.584V14.4282Z" fill="white"/>
<path d="M284.445 26.1318H277.883V51.5681H284.445V26.1318Z" fill="white"/>
<path d="M341.381 43.4775C340.295 43.4775 339.355 43.884 338.558 44.697C337.761 45.51 337.361 46.4595 337.361 47.5457C337.361 48.6318 337.761 49.5716 338.558 50.3683C339.355 51.165 340.295 51.565 341.381 51.565C342.467 51.565 343.459 51.165 344.255 50.3683C345.052 49.5716 345.452 48.6318 345.452 47.5457C345.452 46.4595 345.052 45.51 344.255 44.697C343.459 43.884 342.499 43.4775 341.381 43.4775Z" fill="white"/>
<path d="M383.535 26.1289H376.973V51.5684H383.535V26.1289Z" fill="white"/>
<path d="M304.332 44.8792C303.298 45.471 302.118 45.7702 300.794 45.7702C298.83 45.7702 297.201 45.1166 295.91 43.8126C294.622 42.5053 293.978 40.8534 293.978 38.8502C293.978 36.847 294.622 35.1431 295.91 33.8391C297.198 32.535 298.827 31.8814 300.794 31.8814C302.082 31.8814 303.246 32.1871 304.28 32.7984C305.314 33.4066 306.085 34.239 306.596 35.2926L312.244 31.9822C311.191 29.9823 309.649 28.3889 307.613 27.202C305.581 26.015 303.321 25.4199 300.846 25.4199C297.012 25.4199 293.816 26.7109 291.256 29.2864C288.697 31.8652 287.416 35.0553 287.416 38.8535C287.416 42.6517 288.694 45.8418 291.256 48.4205C293.816 50.9992 297.012 52.287 300.846 52.287C303.321 52.287 305.581 51.6821 307.613 50.4789C309.649 49.279 311.226 47.6726 312.345 45.6727L306.648 42.4143C306.137 43.4646 305.366 44.2874 304.332 44.8825V44.8792Z" fill="white"/>
<path d="M330.407 37.348C329.119 36.8537 327.828 36.4472 326.541 36.1285C325.253 35.8066 324.157 35.4326 323.26 35.0066C322.362 34.5839 321.913 34.0343 321.913 33.3547C321.913 32.7108 322.193 32.2003 322.752 31.8263C323.308 31.4556 324.014 31.267 324.859 31.267C326.762 31.267 328.118 32.132 328.931 33.862L334.527 30.8085C333.542 29.0817 332.205 27.7484 330.508 26.8151C328.811 25.8818 326.931 25.4136 324.859 25.4136C322.115 25.4136 319.816 26.1355 317.965 27.5761C316.115 29.0167 315.195 30.9938 315.195 33.5043C315.195 35.166 315.644 36.548 316.541 37.6504C317.439 38.7561 318.535 39.5593 319.822 40.0698C321.11 40.5804 322.401 41.0031 323.689 41.3413C324.977 41.6828 326.072 42.0632 326.97 42.486C327.867 42.9087 328.319 43.4583 328.319 44.1379C328.319 45.598 327.149 46.3232 324.807 46.3232C322.229 46.3232 320.57 45.2208 319.822 43.0193L314.125 46.2224C316.024 50.258 319.582 52.2774 324.807 52.2774C327.724 52.2774 330.16 51.5685 332.108 50.1669C334.059 48.7589 335.035 46.7492 335.035 44.1379C335.035 42.4079 334.583 40.9641 333.685 39.8129C332.788 38.6618 331.692 37.8358 330.404 37.348H330.407Z" fill="white"/>
<path d="M189.898 32.2752C192.832 32.2752 195.206 29.8981 195.206 26.9681V26.5063H189.898V32.2784V32.2752Z" fill="white"/>
<path d="M269.131 32.2752C272.064 32.2752 274.438 29.8981 274.438 26.9681V26.5063H269.131V32.2784V32.2752Z" fill="white"/>
<path d="M383.535 18.5747H376.973V25.137H377.49C380.829 25.137 383.538 22.1973 383.538 18.5747H383.535Z" fill="white"/>
<path d="M284.445 18.5747H277.883V25.137H278.4C281.74 25.137 284.448 22.1973 284.448 18.5747H284.445Z" fill="white"/>
<path d="M159.785 29.4168L159.509 29.1079C159.232 28.7957 158.933 28.4998 158.624 28.2331C157.652 27.3941 156.462 26.7438 155.181 26.3568C153.821 25.9438 152.306 25.7845 150.673 25.895C146.862 26.1584 143.334 28.1421 141.002 31.3354L140.989 31.3614C140.768 31.6574 140.57 31.9533 140.378 32.272L135.656 39.9529C133.081 44.3202 130.43 46.538 125.068 46.538C124.089 46.538 122.483 46.4534 121.293 46.073C119.075 45.3608 117.576 43.5137 116.981 41.1041L116.935 40.9057H129.985C130.427 40.9057 130.863 40.7984 131.253 40.5838C131.647 40.3692 131.982 40.0602 132.219 39.683L135.835 34.0085C134.365 29.8428 130.336 25.417 123.39 25.417C116.093 25.417 110.158 31.4427 110.158 38.8473C110.158 42.5902 111.517 45.9949 113.995 48.4306C116.88 51.2727 120.743 52.2646 124.688 52.2841C128.031 52.2841 131.136 51.6857 133.988 49.8842C136.655 48.1997 139.591 44.6356 140.781 42.3886L145.181 35.2312C146.394 33.254 148.644 31.8817 151.2 31.5598C153.607 31.2574 155.88 31.9468 157.434 33.4491C158.793 34.7662 159.541 36.6848 159.541 38.8505C159.541 43.2178 156.787 46.151 152.686 46.151C149.054 46.151 146.316 43.5918 145.896 39.8749L141.741 46.3364C141.487 46.7298 141.506 47.2371 141.793 47.6014C144.163 50.6224 147.669 52.2873 151.659 52.2873C154.901 52.2873 157.616 51.0971 159.512 48.8468L159.792 48.5184V51.65H166.224V26.0153H159.792V29.4233L159.785 29.4168ZM116.886 36.2588C117.621 32.724 120.128 30.6168 123.588 30.6168C127.048 30.6168 129.325 32.724 130.043 36.2588L130.083 36.4474H116.851L116.89 36.2588H116.886Z" fill="white"/>
<path d="M191.48 45.6398C190.634 45.5877 189.987 45.3601 189.548 44.9536C189.106 44.5504 188.885 43.9033 188.885 43.022V19.0068H182.322V26.1317H177.896V32.4404H182.322V43.022C182.322 46.5145 183.246 48.9404 185.093 50.2965C186.943 51.6525 190.693 52.0785 195.206 51.568V45.617C193.948 45.6853 192.328 45.6918 191.48 45.6398Z" fill="white"/>
<path d="M270.711 45.6398C269.865 45.5877 269.218 45.3601 268.779 44.9536C268.337 44.5504 268.116 43.9033 268.116 43.022V19.0068H261.553V26.1317H260.074H253.056L247.427 43.2269L240.793 26.1317H233.623L244.052 50.755C243.44 52.4817 242.618 53.737 241.584 54.5207C240.55 55.2979 239.148 55.6718 237.389 55.6393V61.7431C240.641 61.9122 243.356 61.174 245.544 59.5286C247.726 57.8799 249.482 55.2393 250.806 51.607L257.785 32.4371H261.56V43.0188C261.56 46.5113 262.484 48.9372 264.331 50.2932C266.181 51.6493 269.93 52.0753 274.444 51.5647V45.6138C273.185 45.6821 271.563 45.6886 270.717 45.6365L270.711 45.6398Z" fill="white"/>
</g>
<defs>
<linearGradient id="paint0_linear_65_436" x1="4.51219" y1="64.1758" x2="46.2794" y2="6.33448" gradientUnits="userSpaceOnUse">
<stop offset="0.1" stop-color="#0050FF"/>
<stop offset="0.9" stop-color="#3CF096"/>
</linearGradient>
<linearGradient id="paint1_linear_65_436" x1="29.4473" y1="82.1815" x2="71.2145" y2="24.337" gradientUnits="userSpaceOnUse">
<stop offset="0.1" stop-color="#0050FF"/>
<stop offset="0.9" stop-color="#3CF096"/>
</linearGradient>
<linearGradient id="paint2_linear_65_436" x1="13.1139" y1="70.3876" x2="54.8811" y2="12.5463" gradientUnits="userSpaceOnUse">
<stop offset="0.1" stop-color="#0050FF"/>
<stop offset="0.9" stop-color="#3CF096"/>
</linearGradient>
<linearGradient id="paint3_linear_65_436" x1="9.56447" y1="67.8251" x2="51.3317" y2="9.98379" gradientUnits="userSpaceOnUse">
<stop offset="0.1" stop-color="#0050FF"/>
<stop offset="0.9" stop-color="#3CF096"/>
</linearGradient>
<linearGradient id="paint4_linear_65_436" x1="-8.34584" y1="54.8918" x2="33.4246" y2="-2.94945" gradientUnits="userSpaceOnUse">
<stop offset="0.1" stop-color="#0050FF"/>
<stop offset="0.9" stop-color="#3CF096"/>
</linearGradient>
<linearGradient id="paint5_linear_65_436" x1="30.0303" y1="82.6039" x2="71.7975" y2="24.7594" gradientUnits="userSpaceOnUse">
<stop offset="0.1" stop-color="#0050FF"/>
<stop offset="0.9" stop-color="#3CF096"/>
</linearGradient>
<clipPath id="clip0_65_436">
<rect width="382.867" height="67.3075" fill="white" transform="translate(0.667969)"/>
</clipPath>
</defs>
</svg>
